<svg width="216" height="216" viewBox="0 0 216 216" fill="none" xmlns="http://www.w3.org/2000/svg">
<g clip-path="url(#clip0_387_830)">
<path d="M108 216.57C167.647 216.57 216 168.216 216 108.57C216 48.9236 167.647 0.570312 108 0.570312C48.3533 0.570312 6.10352e-05 48.9236 6.10352e-05 108.57C6.10352e-05 168.216 48.3533 216.57 108 216.57Z" fill="#141214"/>
<path d="M108 203.07C160.191 203.07 202.5 160.761 202.5 108.57C202.5 56.3794 160.191 14.0703 108 14.0703C55.8092 14.0703 13.5001 56.3794 13.5001 108.57C13.5001 160.761 55.8092 203.07 108 203.07Z" stroke="#B26EEA" stroke-width="0.875" stroke-miterlimit="10"/>
<path d="M123.739 108.57C170.989 108.57 139.489 54.0417 115.864 94.9354C139.489 54.0417 76.4888 54.0417 100.114 94.9354C76.4888 54.0417 44.9888 108.57 92.2388 108.57C44.9888 108.57 76.4888 163.11 100.114 122.205C76.4888 163.11 139.489 163.11 115.864 122.205C139.478 163.11 170.966 108.57 123.739 108.57ZM107.989 122.633C105.207 122.635 102.487 121.812 100.173 120.268C97.8591 118.725 96.0549 116.529 94.9888 113.96C93.9227 111.39 93.6426 108.562 94.1839 105.834C94.7253 103.105 96.0637 100.599 98.03 98.6308C99.9962 96.663 102.502 95.3225 105.23 94.779C107.958 94.2355 110.786 94.5133 113.356 95.5773C115.927 96.6413 118.124 98.4438 119.669 100.757C121.215 103.069 122.04 105.789 122.04 108.57C122.04 112.296 120.562 115.87 117.929 118.506C115.297 121.143 111.726 122.627 108 122.633H107.989Z" fill="#B26EEA"/>
<path d="M49.9837 71.5577C49.7025 71.9964 49.3875 72.4689 49.0275 72.9752L48.0263 74.3927C47.7225 74.8314 47.4863 75.1689 47.34 75.3939C47.1938 75.6189 47.0024 75.9452 46.8112 76.2489C46.6199 76.5527 46.4175 76.8902 46.2263 77.2277L45.6413 78.1839C45.5866 78.2711 45.5086 78.3412 45.4162 78.3864C45.3734 78.4111 45.3249 78.4241 45.2756 78.4241C45.2262 78.4241 45.1777 78.4111 45.1349 78.3864C45.0843 78.3552 45.0403 78.3143 45.0056 78.2661C44.9708 78.2168 44.946 78.1631 44.9325 78.1052C44.902 77.9795 44.902 77.8483 44.9325 77.7227C45.1156 77.3288 45.2004 76.8965 45.18 76.4627C45.1301 76.285 45.0432 76.12 44.925 75.9785C44.8067 75.8369 44.6597 75.722 44.4937 75.6414L35.7187 70.0164C35.4272 69.7819 35.0565 69.6691 34.6838 69.7014C34.2478 69.8411 33.8586 70.098 33.5588 70.4439C33.4679 70.5394 33.3562 70.6125 33.2325 70.6577C33.173 70.6737 33.1108 70.6759 33.0504 70.6642C32.99 70.6525 32.933 70.6272 32.8838 70.5902C32.8415 70.5645 32.8067 70.528 32.783 70.4846C32.7593 70.4411 32.7474 70.3922 32.7487 70.3427C32.7437 70.2342 32.7755 70.1272 32.8388 70.0389C33.0188 69.7464 33.2324 69.4314 33.4574 69.1164C33.6824 68.8014 33.8963 68.4864 34.1213 68.1827C34.3463 67.8789 34.5375 67.5977 34.695 67.3389C34.8525 67.0802 34.9987 66.8552 35.19 66.5064C35.3812 66.1577 35.595 65.7864 35.8313 65.3814L36.5063 64.2002C36.72 63.8177 36.9 63.5139 37.0462 63.2777C37.6462 62.3438 38.4081 61.5247 39.2962 60.8589C40.0999 60.235 41.0168 59.7728 41.9963 59.4977C42.9644 59.2225 43.9806 59.1605 44.9749 59.3159C45.9693 59.4713 46.9182 59.8403 47.7563 60.3977C48.6051 60.9381 49.3453 61.6325 49.9387 62.4452C50.5325 63.2617 50.9605 64.1866 51.1987 65.1677C51.449 66.1845 51.4798 67.243 51.2888 68.2727C51.0808 69.4448 50.6368 70.5624 49.9837 71.5577ZM48.8587 71.2202C49.3912 70.4525 49.6596 69.5325 49.6237 68.5989C49.5543 67.7 49.2261 66.8404 48.6787 66.1239C48.0111 65.2695 47.1957 64.5417 46.2712 63.9752C45.4868 63.4609 44.6399 63.0488 43.7512 62.7489C43.0007 62.5009 42.2125 62.3867 41.4225 62.4114C40.7164 62.4382 40.0265 62.6309 39.4087 62.9739C38.7773 63.34 38.2475 63.8583 37.8675 64.4814C37.5975 64.8864 37.395 65.2464 37.2375 65.5389C37.107 65.7688 37.0372 66.0283 37.035 66.2927C37.0475 66.4034 37.0869 66.5094 37.1497 66.6016C37.2124 66.6937 37.2965 66.7691 37.3949 66.8214L45.8213 72.2214C46.1511 72.4572 46.5414 72.5939 46.9463 72.6152C47.3096 72.6111 47.6598 72.4797 47.9362 72.2439C48.2835 71.9538 48.5801 71.6078 48.8137 71.2202H48.8587Z" fill="#B26EEA"/>
<path d="M58.6463 60.5438C58.5639 60.6266 58.4577 60.6816 58.3425 60.7013C58.2973 60.7043 58.2519 60.6979 58.2093 60.6824C58.1667 60.6669 58.1278 60.6427 58.0951 60.6113C58.0531 60.5807 58.0197 60.5397 57.998 60.4925C57.9763 60.4452 57.9671 60.3932 57.9713 60.3413C57.9952 60.2209 58.0494 60.1086 58.1289 60.0151C58.3387 59.7656 58.4578 59.4522 58.4664 59.1263C58.4664 58.9013 58.2525 58.7101 57.9263 58.5413L57.0264 58.0801C56.9572 58.0561 56.8818 58.0561 56.8126 58.0801C56.725 58.106 56.6469 58.1568 56.5876 58.2263L54.4726 60.4763C54.4107 60.5271 54.3706 60.5995 54.3601 60.6788C54.3757 60.7484 54.3983 60.8163 54.4276 60.8813C54.5176 61.1176 54.5964 61.3201 54.6752 61.4776C54.7539 61.6351 54.8439 61.7926 54.9452 61.9613C54.9934 62.0639 55.0639 62.1544 55.1514 62.2264C55.239 62.2984 55.3414 62.35 55.4514 62.3776C55.6426 62.3776 55.9576 62.2651 56.4076 61.9276C56.493 61.8466 56.5975 61.7885 56.7113 61.7588C56.7617 61.7576 56.8118 61.767 56.8583 61.7864C56.9048 61.8058 56.9467 61.8347 56.9813 61.8713C57.0113 61.902 57.0331 61.9397 57.0449 61.9809C57.0567 62.0222 57.0581 62.0657 57.0489 62.1076C57.0277 62.2157 56.9725 62.3142 56.8914 62.3888C56.6664 62.6251 56.4639 62.8163 56.2951 62.9738L55.8226 63.4126L55.3614 63.8851C55.2249 64.0152 55.097 64.1543 54.9788 64.3013L54.6301 64.7288C54.4874 64.9108 54.3333 65.0837 54.1688 65.2463C54.0913 65.326 53.9998 65.3908 53.8988 65.4376C53.8509 65.4539 53.7995 65.4575 53.7497 65.4479C53.6999 65.4384 53.6534 65.4161 53.6149 65.3832C53.5763 65.3503 53.547 65.3079 53.5297 65.2603C53.5124 65.2126 53.5078 65.1613 53.5164 65.1113C53.5481 65.0279 53.5896 64.9486 53.6401 64.8751C53.7552 64.6933 53.8532 64.5012 53.9326 64.3013C53.9998 64.1253 54.0341 63.9385 54.0338 63.7501C54.0358 63.5604 53.9975 63.3725 53.9214 63.1988L51.1876 56.8313C51.0684 56.5147 50.8888 56.2244 50.6588 55.9763C50.4788 55.7963 50.4001 55.6726 50.4226 55.5826C50.4451 55.4926 50.5576 55.1326 50.6814 54.7838C50.8051 54.4351 50.9177 54.0863 51.0189 53.7488L51.2213 53.0626C51.2826 52.8678 51.3541 52.6762 51.4352 52.4888C51.4736 52.3821 51.5306 52.283 51.6038 52.1963C51.644 52.1702 51.6909 52.1563 51.7388 52.1563C51.7867 52.1562 51.8336 52.1702 51.8738 52.1963C52.0196 52.2393 52.1624 52.2919 52.3013 52.3538L60.6826 56.2238C60.8959 56.315 61.1257 56.361 61.3576 56.3588C61.6404 56.3245 61.9067 56.207 62.1227 56.0213C62.2036 55.9636 62.2903 55.9146 62.3814 55.8751C62.4317 55.8579 62.4862 55.8573 62.5368 55.8735C62.5875 55.8897 62.6317 55.9218 62.6626 55.9651C62.6929 55.994 62.7165 56.029 62.732 56.0678C62.7475 56.1066 62.7545 56.1483 62.7526 56.1901C62.7378 56.2858 62.69 56.3733 62.6176 56.4376C62.3251 56.7413 61.9763 57.0788 61.5938 57.4501C61.2113 57.8213 60.8738 58.1476 60.6151 58.4176L60.0413 59.0588L59.3438 59.8913L58.6463 60.5438ZM54.0451 59.2951L55.5526 57.7201C55.5859 57.6957 55.6127 57.6634 55.6304 57.6261C55.6481 57.5887 55.6562 57.5476 55.6539 57.5063C55.6386 57.4683 55.6158 57.4337 55.5868 57.4047C55.5578 57.3757 55.5232 57.3528 55.4851 57.3376L54.7313 56.9888L53.8538 56.6063C53.5538 56.4863 53.2614 56.3513 52.9764 56.2013C52.6839 56.0663 52.4138 55.9201 52.155 55.7851C52.1188 55.7712 52.0788 55.7712 52.0426 55.7851C52.0426 55.7851 52.0426 55.8413 52.0426 55.9313C52.2788 56.4488 52.5376 57.0001 52.8189 57.5738C53.1001 58.1476 53.3814 58.6988 53.6401 59.2613C53.6902 59.3234 53.7468 59.3799 53.8089 59.4301C53.8089 59.4301 53.9101 59.3963 54.0451 59.2951Z" fill="#B26EEA"/>
<path d="M74.0589 48.7539C73.8205 48.9094 73.5634 49.0341 73.2938 49.1252C73.0635 49.1706 72.8266 49.1706 72.5963 49.1252C72.2876 49.072 71.9831 48.9968 71.6851 48.9001L63.7088 46.6501L63.3263 46.5602C63.2608 46.537 63.1893 46.537 63.1237 46.5602C63.1237 46.5602 63.1237 46.6389 63.1237 46.7177C63.1602 46.801 63.2056 46.8802 63.2589 46.9539C63.5176 47.3476 63.8326 47.8201 64.2038 48.3601C64.5751 48.9001 64.9351 49.4289 65.3288 49.9352L66.2288 51.2064C66.3102 51.3259 66.4171 51.4262 66.5415 51.5C66.6659 51.5739 66.8048 51.6196 66.9488 51.6339C67.3365 51.6177 67.7179 51.53 68.0738 51.3752C68.1742 51.3573 68.2771 51.3573 68.3775 51.3752C68.4396 51.3754 68.5005 51.3922 68.5539 51.4239C68.6073 51.4555 68.6513 51.5008 68.6813 51.5551C68.7011 51.5934 68.7114 51.6358 68.7114 51.6789C68.7114 51.7219 68.7011 51.7644 68.6813 51.8026C68.6407 51.8882 68.5786 51.9618 68.5013 52.0164C68.1038 52.2789 67.8112 52.4589 67.6237 52.5564C67.4325 52.6689 67.1851 52.8151 66.8813 53.0176L65.9026 53.6814L65.1601 54.1989C65.0889 54.2414 65.0065 54.261 64.9239 54.2551C64.8842 54.2577 64.8445 54.2496 64.8089 54.2318C64.7733 54.2141 64.7431 54.1872 64.7213 54.1539C64.6986 54.1105 64.6868 54.0623 64.6868 54.0133C64.6868 53.9643 64.6986 53.9161 64.7213 53.8727C64.751 53.784 64.8057 53.7058 64.8788 53.6476C65.0575 53.4556 65.209 53.2398 65.3288 53.0064C65.3872 52.8762 65.4106 52.733 65.3968 52.591C65.383 52.4489 65.3324 52.3129 65.25 52.1964L64.845 51.4426C64.665 51.1277 64.4739 50.7677 64.2376 50.3739L63.5063 49.1476L62.7075 47.8427C62.4488 47.4039 62.1788 46.9764 61.9088 46.5714C61.7673 46.3381 61.5651 46.1476 61.3238 46.0201C61.1121 45.9091 60.8766 45.8512 60.6375 45.8514C60.3784 45.8604 60.1214 45.902 59.8726 45.9751C59.7601 46.0121 59.6423 46.0311 59.5238 46.0314C59.4807 46.0302 59.4385 46.0183 59.4012 45.9967C59.3638 45.9751 59.3326 45.9445 59.3101 45.9077C59.2882 45.8721 59.2766 45.8312 59.2766 45.7895C59.2766 45.7478 59.2882 45.7069 59.3101 45.6714C59.3766 45.5635 59.4695 45.4745 59.5801 45.4126L60.1088 45.0751L61.0313 44.5126L62.0663 43.8601L62.9551 43.2864C63.0632 43.2093 63.1936 43.1698 63.3263 43.1739C63.4349 43.1828 63.5413 43.2094 63.6413 43.2527L71.1226 45.2551H71.3138C71.3754 45.2785 71.4435 45.2785 71.5051 45.2551C71.5051 45.2551 71.5051 45.2551 71.5051 45.1426C71.4914 45.0779 71.4645 45.0166 71.4263 44.9626L69.1088 41.5876C68.944 41.3116 68.6959 41.0949 68.4001 40.9689C68.0166 40.9132 67.6253 40.9719 67.2751 41.1376H66.9826C66.9292 41.1446 66.8751 41.1355 66.827 41.1114C66.7789 41.0873 66.739 41.0495 66.7126 41.0027C66.6908 40.965 66.6795 40.9223 66.6795 40.8789C66.6795 40.8355 66.6908 40.7928 66.7126 40.7552C66.7575 40.6756 66.8189 40.6066 66.8926 40.5526L67.6463 40.0801L68.1076 39.8102C68.2822 39.7191 68.4512 39.6176 68.6138 39.5064C68.7742 39.4074 68.9283 39.2984 69.075 39.1801L69.48 38.8764L70.02 38.5052C70.108 38.4515 70.2095 38.4242 70.3125 38.4264C70.3548 38.4253 70.3966 38.4351 70.4341 38.4548C70.4715 38.4745 70.5033 38.5034 70.5263 38.5389C70.5539 38.5785 70.5686 38.6256 70.5686 38.6739C70.5686 38.7222 70.5539 38.7693 70.5263 38.8089C70.4831 38.9005 70.4303 38.9872 70.3688 39.0677C70.1164 39.2583 69.9344 39.5274 69.8514 39.8326C69.8199 40.1359 69.8912 40.441 70.0538 40.6989L73.9351 47.1789C74.1352 47.451 74.2664 47.7675 74.3176 48.1014C74.3548 48.2234 74.3495 48.3544 74.3025 48.473C74.2555 48.5915 74.1696 48.6906 74.0589 48.7539Z" fill="#B26EEA"/>
<path d="M84.6226 43.9054C83.8156 44.2203 82.9664 44.4137 82.1026 44.4791C81.3431 44.529 80.5809 44.4414 79.8526 44.2204C79.164 44.0056 78.5278 43.6492 77.9851 43.1741C77.4448 42.6842 77.0316 42.0704 76.7812 41.3854C76.5036 40.7241 76.3768 40.0093 76.41 39.2929C76.4549 38.544 76.6541 37.8124 76.9951 37.1441C77.3874 36.3856 77.9267 35.7126 78.5814 35.1642C79.363 34.5075 80.2541 33.9934 81.2138 33.6454C81.5544 33.5207 81.9041 33.4229 82.26 33.3529C82.6318 33.2774 83.0073 33.2211 83.385 33.1842C83.6957 33.1574 84.0082 33.1574 84.3188 33.1842C84.3971 33.1719 84.4768 33.1719 84.555 33.1842C84.6225 33.1842 84.6788 33.2404 84.7238 33.3529C84.9463 33.7111 85.1383 34.0874 85.2976 34.4779L85.5901 35.1642C85.6215 35.2229 85.6319 35.2906 85.6196 35.356C85.6073 35.4215 85.5731 35.4808 85.5225 35.5241C85.4694 35.5673 85.4083 35.5994 85.3426 35.6187C85.277 35.638 85.2081 35.6441 85.1401 35.6366C85.0055 35.6272 84.8782 35.5716 84.78 35.4791C84.5249 35.1679 84.23 34.8918 83.9026 34.6579C83.5877 34.4473 83.223 34.3231 82.845 34.2979C82.3387 34.2913 81.8367 34.391 81.3713 34.5904C80.7815 34.7822 80.2817 35.1821 79.9651 35.7154C79.6599 36.2733 79.5085 36.9023 79.5263 37.5379C79.5323 38.223 79.6618 38.9014 79.9088 39.5404C80.1988 40.3448 80.6044 41.1027 81.1126 41.7904C81.4963 42.3075 82.0248 42.6991 82.6313 42.9154C83.2692 43.091 83.9479 43.0433 84.555 42.7804C85.0028 42.616 85.4151 42.3678 85.77 42.0491C86.0885 41.7369 86.3245 41.3503 86.4564 40.9241C86.6156 40.4689 86.6918 39.9888 86.6813 39.5067C86.6697 39.3992 86.6944 39.291 86.7515 39.1992C86.8086 39.1075 86.8948 39.0375 86.9963 39.0004C87.1988 38.9329 87.3451 39.0004 87.4013 39.1579C87.4753 39.338 87.539 39.522 87.5925 39.7091C87.6566 39.9305 87.7055 40.1561 87.7387 40.3842C87.7387 40.6316 87.8176 40.9129 87.8513 41.2167C87.8771 41.3239 87.8771 41.4357 87.8513 41.5429C87.8095 41.6437 87.7606 41.7414 87.7051 41.8354C87.3269 42.1982 86.9163 42.5258 86.4787 42.8142C85.9043 43.2485 85.2815 43.6147 84.6226 43.9054Z" fill="#B26EEA"/>
<path d="M92.0363 41.3851C91.9874 41.3972 91.9363 41.3973 91.8874 41.3856C91.8385 41.3738 91.7931 41.3505 91.755 41.3176C91.6784 41.26 91.6262 41.1757 91.6088 41.0814C91.5978 41.0255 91.6003 40.9678 91.6159 40.913C91.6315 40.8583 91.6599 40.808 91.6987 40.7664C91.7707 40.683 91.864 40.6208 91.9687 40.5864C92.1921 40.5022 92.3953 40.3719 92.565 40.2039C92.6274 40.1107 92.668 40.0046 92.6836 39.8936C92.6992 39.7825 92.6893 39.6694 92.6549 39.5626L91.5299 32.8126C91.5034 32.5564 91.4018 32.3137 91.2376 32.1151C91.0001 31.96 90.7223 31.8779 90.4387 31.8789C90.3286 31.871 90.2213 31.8403 90.1237 31.7889C90.0805 31.7621 90.044 31.726 90.0167 31.6831C89.9894 31.6403 89.9722 31.5918 89.9663 31.5414C89.9567 31.4916 89.9587 31.4403 89.9723 31.3914C89.986 31.3426 90.0109 31.2977 90.045 31.2601C90.1096 31.1803 90.2021 31.1281 90.3037 31.1139L90.9674 31.0239L91.7212 30.9451L92.3175 30.8664L94.1625 30.5514L96.0188 30.2139L97.5263 29.9326L98.3025 29.7864C98.4021 29.7607 98.5066 29.7607 98.6062 29.7864C98.666 29.8098 98.7178 29.8497 98.7556 29.9015C98.7935 29.9533 98.8159 30.0148 98.82 30.0789C98.8865 30.4675 99.0037 30.8458 99.1687 31.2039C99.3185 31.5317 99.4317 31.875 99.5063 32.2276C99.5233 32.313 99.5233 32.401 99.5063 32.4864C99.4977 32.5237 99.4781 32.5576 99.45 32.5837C99.4219 32.6098 99.3866 32.6268 99.3488 32.6326C99.2698 32.6376 99.1911 32.618 99.1237 32.5764C99.0193 32.5201 98.9304 32.439 98.865 32.3401C98.6095 31.9376 98.3158 31.5609 97.9876 31.2151C97.8192 31.0891 97.6236 31.0041 97.4165 30.967C97.2095 30.9299 96.9967 30.9416 96.795 31.0014L95.58 31.2039C95.3812 31.2304 95.1979 31.326 95.0624 31.4739C94.9945 31.5622 94.948 31.665 94.9265 31.7743C94.905 31.8836 94.9092 31.9965 94.9387 32.1039L95.355 34.5676C95.3567 34.6324 95.3739 34.6959 95.4052 34.7527C95.4365 34.8095 95.4811 34.8579 95.535 34.8939C95.6522 34.9302 95.7777 34.9302 95.8949 34.8939L97.0199 34.7139C97.1336 34.7001 97.2434 34.663 97.3421 34.605C97.4408 34.5469 97.5264 34.4691 97.5937 34.3764C97.756 34.1055 97.8559 33.8019 97.8862 33.4876C97.9026 33.3826 97.9495 33.2848 98.0212 33.2064C98.0764 33.1608 98.1422 33.1299 98.2125 33.1164C98.2458 33.1107 98.28 33.114 98.3117 33.1259C98.3433 33.1377 98.3712 33.1577 98.3925 33.1839C98.456 33.2801 98.4838 33.3955 98.4712 33.5101C98.4712 33.8364 98.4713 34.0951 98.5388 34.2976C98.6063 34.5001 98.6063 34.7364 98.6513 34.9951C98.6963 35.2539 98.73 35.4339 98.7637 35.5914C98.7975 35.7489 98.8538 35.9964 98.9438 36.3451C98.9901 36.48 98.9901 36.6265 98.9438 36.7614C98.9376 36.7974 98.9216 36.831 98.8979 36.8587C98.8741 36.8865 98.8434 36.9072 98.8088 36.9189C98.7156 36.9273 98.6228 36.899 98.5501 36.8401C98.4493 36.7673 98.3681 36.6707 98.3137 36.5589C98.2099 36.2777 98.0491 36.0211 97.8413 35.8051C97.7633 35.7375 97.6717 35.6875 97.5727 35.6584C97.4737 35.6293 97.3697 35.6216 97.2675 35.6364L96.5924 35.7489L95.9062 35.8614C95.8587 35.8672 95.8133 35.8846 95.7741 35.9121C95.7349 35.9395 95.703 35.9762 95.6813 36.0189C95.6538 36.1029 95.6538 36.1936 95.6813 36.2776L96.1313 38.9776C96.1438 39.1547 96.2244 39.32 96.3562 39.4389C96.53 39.5277 96.7308 39.5477 96.9187 39.4951L98.4374 39.2364C98.9225 39.1534 99.3574 38.8877 99.6525 38.4939C99.977 38.108 100.191 37.6415 100.271 37.1439C100.269 37.09 100.278 37.0363 100.297 36.9859C100.317 36.9356 100.346 36.8898 100.384 36.8514C100.434 36.7941 100.501 36.7546 100.575 36.7389C100.617 36.7308 100.661 36.735 100.701 36.751C100.741 36.7669 100.775 36.794 100.8 36.8289C100.853 36.9032 100.892 36.9873 100.913 37.0764C100.968 37.4493 100.968 37.8284 100.913 38.2014C100.913 38.5501 100.811 38.9776 100.755 39.4726C100.757 39.6142 100.705 39.7511 100.609 39.8551C100.51 39.9488 100.384 40.008 100.249 40.0239L99.3825 40.1701L97.9763 40.3951L96.3224 40.6539L94.6462 40.9239L93.825 41.0814L92.88 41.2726L92.0363 41.3851Z" fill="#B26EEA"/>
<path d="M109.766 39.6079C109.664 39.5953 109.568 39.5565 109.485 39.4954C109.384 39.4279 109.339 39.3605 109.35 39.2817C109.349 39.2235 109.363 39.166 109.39 39.1147C109.418 39.0635 109.458 39.0202 109.508 38.9892C109.602 38.9408 109.705 38.9103 109.811 38.8992C110.118 38.8653 110.417 38.7857 110.7 38.663C110.788 38.5994 110.858 38.5142 110.903 38.4157C110.949 38.3171 110.968 38.2086 110.959 38.1005L111.42 30.8329C111.45 30.6596 111.409 30.4815 111.308 30.3379C111.205 30.2378 111.068 30.1813 110.925 30.1804H110.419C110.242 30.1739 110.067 30.2034 109.902 30.2672C109.738 30.3311 109.588 30.4279 109.463 30.5517C109.159 30.81 108.877 31.0921 108.619 31.3954C108.544 31.5061 108.461 31.6114 108.371 31.7104C108.262 31.8514 108.138 31.9797 108 32.093C107.953 32.1438 107.895 32.1841 107.831 32.2112C107.767 32.2383 107.698 32.2517 107.629 32.2505C107.552 32.243 107.478 32.2158 107.415 32.1717C107.378 32.1504 107.348 32.1191 107.328 32.0812C107.308 32.0433 107.299 32.0006 107.302 31.9579C107.308 31.8181 107.351 31.6823 107.426 31.5642C107.55 31.3057 107.655 31.0388 107.741 30.7654C107.928 30.1645 108.074 29.5519 108.18 28.9317C108.204 28.7886 108.275 28.6577 108.383 28.5605C108.481 28.5016 108.594 28.4741 108.709 28.4817C108.766 28.4848 108.823 28.4994 108.875 28.5245C108.927 28.5496 108.974 28.5848 109.012 28.628C109.099 28.7255 109.198 28.8123 109.305 28.8867C109.45 28.9912 109.609 29.0746 109.778 29.1342C110.036 29.2166 110.305 29.2621 110.576 29.2692L115.706 29.5842C116.079 29.637 116.458 29.637 116.831 29.5842C117.1 29.538 117.364 29.4664 117.619 29.3704L117.956 29.2242C118.042 29.1856 118.133 29.1628 118.226 29.1567C118.27 29.1558 118.313 29.1655 118.353 29.1851C118.392 29.2047 118.426 29.2336 118.451 29.2692C118.475 29.3577 118.475 29.4507 118.451 29.5392C118.451 30.0904 118.451 30.5292 118.451 30.8667C118.451 31.2042 118.451 31.4629 118.451 31.6654C118.462 31.8828 118.462 32.1006 118.451 32.318C118.426 32.4574 118.385 32.5933 118.328 32.723C118.26 32.903 118.147 32.9817 117.99 32.9592C117.877 32.9511 117.772 32.8985 117.697 32.813C117.595 32.6781 117.53 32.5193 117.506 32.3517C117.419 31.8998 117.247 31.4684 117 31.0804C116.919 30.9504 116.811 30.8397 116.682 30.7561C116.554 30.6725 116.409 30.6181 116.258 30.5967H115.526C115.435 30.5868 115.344 30.5979 115.258 30.6291C115.172 30.6603 115.094 30.7108 115.031 30.7767C114.907 30.8856 114.83 31.0392 114.818 31.2042L114.367 38.438C114.353 38.5465 114.366 38.657 114.405 38.7592C114.444 38.8615 114.509 38.9522 114.592 39.0229C114.833 39.2034 115.109 39.33 115.403 39.3942C115.499 39.4161 115.588 39.4627 115.661 39.5292C115.702 39.5629 115.734 39.6063 115.754 39.6554C115.773 39.7046 115.78 39.7579 115.774 39.8105C115.77 39.8558 115.755 39.8994 115.729 39.9369C115.704 39.9745 115.668 40.0046 115.627 40.0242C115.549 40.069 115.459 40.0923 115.369 40.0917L114.469 40.0017L113.344 39.9004L112.433 39.8329H111.623C111.285 39.8329 110.936 39.8329 110.588 39.8329L109.766 39.6079Z" fill="#B26EEA"/>
<path d="M126.225 42.3078C125.219 42.0377 124.288 41.5413 123.503 40.8566C122.763 40.2121 122.199 39.3919 121.86 38.4716C121.519 37.5588 121.484 36.56 121.759 35.6253C121.947 34.9439 122.272 34.3083 122.715 33.7578C123.17 33.1994 123.727 32.7335 124.358 32.3853C125.053 32.0082 125.819 31.7784 126.608 31.7103C128.302 31.5778 129.992 32.0132 131.411 32.9478C132.671 33.747 133.561 35.0136 133.886 36.4691C134.034 37.1925 134.007 37.9407 133.808 38.6516C133.543 39.5862 133.034 40.4329 132.331 41.1036C131.629 41.7743 130.76 42.2446 129.814 42.4653C128.625 42.7313 127.386 42.677 126.225 42.3078ZM126.698 41.3853C127.062 41.5096 127.458 41.5096 127.823 41.3853C128.185 41.2497 128.511 41.0344 128.779 40.7553C129.094 40.4248 129.352 40.0447 129.544 39.6303C129.781 39.1348 129.973 38.619 130.118 38.0891C130.335 37.3243 130.445 36.5329 130.444 35.7378C130.458 35.0981 130.315 34.4647 130.028 33.8928C129.899 33.652 129.721 33.4406 129.506 33.2721C129.291 33.1036 129.044 32.9817 128.779 32.9141C128.547 32.8453 128.304 32.8247 128.064 32.8538C127.824 32.8828 127.593 32.9607 127.384 33.0828C126.909 33.3675 126.52 33.7758 126.259 34.2641C125.894 34.8742 125.617 35.5334 125.438 36.2216C125.211 37.0041 125.093 37.8143 125.089 38.6291C125.072 39.2691 125.215 39.9031 125.505 40.4741C125.632 40.6985 125.803 40.895 126.008 41.0516C126.213 41.2082 126.448 41.3216 126.698 41.3853Z" fill="#B26EEA"/>
<path d="M138.364 46.504C138.253 46.4441 138.166 46.3491 138.116 46.234C138.096 46.1918 138.086 46.1457 138.086 46.099C138.086 46.0523 138.096 46.0062 138.116 45.964C138.146 45.9165 138.185 45.8759 138.232 45.8449C138.278 45.8138 138.331 45.7931 138.386 45.784C138.516 45.756 138.65 45.756 138.78 45.784C139.167 45.917 139.576 45.9705 139.984 45.9415C140.157 45.8941 140.317 45.8089 140.453 45.6922C140.589 45.5755 140.698 45.4301 140.771 45.2665L146.183 36.2665C146.327 36.0483 146.426 35.8035 146.475 35.5465C146.508 35.3326 146.456 35.1143 146.329 34.939C146.14 34.6708 145.921 34.4254 145.676 34.2077C145.44 33.9715 145.384 33.7577 145.508 33.544C145.532 33.4996 145.568 33.4626 145.611 33.4368C145.655 33.4111 145.704 33.3976 145.755 33.3977C145.87 33.3942 145.984 33.4256 146.081 33.4877C146.385 33.6677 146.7 33.859 147.026 34.0727L147.983 34.714C148.286 34.9277 148.579 35.1077 148.838 35.2652C149.096 35.4227 149.423 35.614 149.771 35.8052L150.896 36.3902C151.268 36.5927 151.594 36.784 151.886 36.964C151.982 37.0147 152.061 37.0931 152.111 37.189C152.143 37.2723 152.143 37.3645 152.111 37.4477C152.085 37.5033 152.046 37.5518 151.997 37.589C151.948 37.6262 151.891 37.6511 151.83 37.6615C151.703 37.675 151.575 37.675 151.448 37.6615C151.008 37.5035 150.541 37.4384 150.075 37.4702C149.903 37.5157 149.743 37.5989 149.607 37.7136C149.471 37.8284 149.362 37.972 149.288 38.134L143.978 46.9877C143.785 47.2581 143.704 47.5928 143.753 47.9215C143.881 48.2394 144.121 48.4994 144.428 48.6527L146.441 49.8565C146.705 50.0201 147 50.1274 147.308 50.1715C147.587 50.2166 147.872 50.2166 148.151 50.1715C148.505 50.0904 148.849 49.9697 149.175 49.8115C149.508 49.6445 149.827 49.4527 150.131 49.2377C150.322 49.1085 150.526 48.9992 150.739 48.9115C150.786 48.8886 150.838 48.8767 150.891 48.8767C150.943 48.8767 150.995 48.8886 151.043 48.9115C151.09 48.9347 151.128 48.9723 151.152 49.0188C151.177 49.0653 151.185 49.1184 151.178 49.1702C151.166 49.2742 151.132 49.3742 151.076 49.4627C151.076 49.4627 151.076 49.5415 150.93 49.6202C150.867 49.6774 150.81 49.7415 150.761 49.8115C150.446 50.1415 150.165 50.4227 149.918 50.6552C149.67 50.8915 149.445 51.1165 149.243 51.3527C149.04 51.589 148.826 51.8365 148.601 52.129C148.533 52.2081 148.454 52.2764 148.365 52.3315C148.32 52.3619 148.267 52.3782 148.213 52.3782C148.159 52.3782 148.106 52.3619 148.061 52.3315L146.88 51.6002L145.125 50.4752L143.156 49.2602L141.289 48.1352C141.019 47.9665 140.693 47.7865 140.333 47.584L139.275 47.0215L138.364 46.504Z" fill="#B26EEA"/>
<path d="M149.378 53.3665C149.299 53.3039 149.237 53.2227 149.198 53.1303C149.174 53.0914 149.161 53.0466 149.161 53.0009C149.161 52.9553 149.174 52.9105 149.198 52.8716C149.229 52.8293 149.27 52.7944 149.317 52.7692C149.363 52.744 149.415 52.729 149.468 52.7253C149.579 52.7234 149.689 52.7547 149.783 52.8153C150 52.9467 150.241 53.0346 150.491 53.0741C150.683 53.0741 150.874 52.9616 151.088 52.7028L155.486 47.2803C155.672 47.0957 155.778 46.8448 155.779 46.5828C155.723 46.3036 155.595 46.0439 155.408 45.8291C155.336 45.736 155.286 45.6285 155.261 45.5141C155.249 45.4608 155.249 45.4054 155.263 45.3525C155.277 45.2996 155.303 45.2508 155.34 45.2103C155.369 45.1735 155.407 45.1456 155.451 45.1297C155.495 45.1137 155.542 45.1105 155.588 45.1203C155.69 45.1442 155.786 45.1903 155.869 45.2553L156.499 45.7953L157.219 46.4478L157.86 46.9878C158.029 47.1228 158.254 47.3028 158.546 47.5166L159.39 48.1578L160.076 48.6978C160.155 48.7557 160.211 48.8393 160.234 48.9341C160.241 48.976 160.239 49.019 160.227 49.0599C160.216 49.1009 160.195 49.1386 160.166 49.1703C160.138 49.2061 160.102 49.2349 160.061 49.2545C160.02 49.274 159.975 49.2837 159.93 49.2828H159.626C159.393 49.1826 159.147 49.1145 158.895 49.0803C158.825 49.0719 158.754 49.0776 158.687 49.0969C158.619 49.1162 158.556 49.1488 158.501 49.1928C158.375 49.295 158.262 49.4121 158.164 49.5416L153.821 54.8853C153.743 54.9688 153.683 55.0683 153.646 55.177C153.609 55.2857 153.596 55.4011 153.608 55.5153C153.673 55.746 153.771 55.9658 153.9 56.1678C153.96 56.267 154.01 56.3727 154.046 56.4828C154.058 56.5343 154.057 56.5878 154.043 56.6387C154.029 56.6897 154.003 56.7365 153.968 56.7753C153.941 56.8139 153.906 56.8454 153.865 56.867C153.824 56.8886 153.778 56.8996 153.731 56.899C153.646 56.89 153.565 56.859 153.495 56.8091L152.831 56.2466L152.044 55.5491L151.391 55.0091L150.75 54.5028L149.985 53.929L149.378 53.3665Z" fill="#B26EEA"/>
<path d="M156.634 59.543C156.564 59.4656 156.524 59.3659 156.521 59.2618C156.519 59.2112 156.527 59.1607 156.547 59.1139C156.566 59.0672 156.596 59.0254 156.634 58.9917C156.672 58.9534 156.718 58.9236 156.768 58.9042C156.819 58.8848 156.872 58.8763 156.926 58.8793C157.03 58.8942 157.127 58.937 157.208 59.003C157.427 59.2121 157.693 59.3663 157.984 59.453C158.094 59.4568 158.203 59.4366 158.304 59.3939C158.405 59.3511 158.495 59.2868 158.569 59.2055L163.913 54.4693C163.993 54.4072 164.059 54.3292 164.108 54.2401C164.156 54.151 164.185 54.0528 164.194 53.9518C164.168 53.6764 164.062 53.4146 163.89 53.198C163.824 53.0987 163.796 52.9788 163.811 52.8605C163.818 52.7673 163.858 52.6795 163.924 52.613C163.961 52.5789 164.006 52.5541 164.055 52.5404C164.104 52.5267 164.155 52.5246 164.205 52.5343C164.309 52.5507 164.405 52.6023 164.475 52.6805L164.914 53.198L165.398 53.828C165.555 54.0305 165.69 54.188 165.78 54.2893L167.029 55.6843L168.356 57.1355L169.481 58.3392L170.055 58.9693C170.122 59.0551 170.168 59.1552 170.19 59.2618C170.204 59.3251 170.198 59.3909 170.174 59.451C170.15 59.5111 170.109 59.5627 170.055 59.5993L169.358 60.2742L168.863 60.7355L168.356 61.208C168.299 61.2632 168.223 61.2952 168.143 61.298C168.108 61.2958 168.074 61.2867 168.044 61.2712C168.013 61.2558 167.985 61.2343 167.963 61.208C167.919 61.1484 167.892 61.0787 167.884 61.0055C167.877 60.8927 167.9 60.78 167.951 60.6792C168.158 60.2481 168.338 59.8048 168.491 59.3518C168.529 59.1567 168.515 58.955 168.45 58.7673C168.385 58.5796 168.271 58.4125 168.12 58.283L167.411 57.473C167.24 57.2799 167.029 57.1263 166.793 57.023C166.689 56.9739 166.573 56.9583 166.46 56.9785C166.347 56.9986 166.243 57.0535 166.163 57.1355L164.34 58.7555C164.28 58.7991 164.231 58.8566 164.198 58.9233C164.164 58.9899 164.148 59.0635 164.149 59.138C164.157 59.2872 164.222 59.4277 164.329 59.5318L165.15 60.4543C165.216 60.5355 165.305 60.5964 165.404 60.6302C165.503 60.664 165.61 60.6693 165.713 60.6455C166.009 60.5963 166.299 60.5171 166.579 60.4093C166.682 60.3826 166.791 60.3826 166.894 60.4093C166.967 60.4226 167.033 60.4579 167.085 60.5105C167.105 60.5426 167.116 60.5796 167.116 60.6174C167.116 60.6552 167.105 60.6922 167.085 60.7243C167.037 60.8213 166.963 60.903 166.871 60.9605L166.241 61.4443C166.028 61.6018 165.814 61.7705 165.611 61.9505C165.446 62.0959 165.288 62.2498 165.139 62.4118C165.015 62.558 164.858 62.7155 164.689 62.8955C164.594 63.0045 164.474 63.0893 164.34 63.143C164.31 63.1633 164.275 63.1742 164.239 63.1742C164.203 63.1742 164.167 63.1633 164.138 63.143C164.087 63.083 164.06 63.0075 164.059 62.9292C164.046 62.7938 164.082 62.6582 164.16 62.5468C164.334 62.3278 164.45 62.0686 164.498 61.793C164.509 61.5984 164.449 61.4064 164.329 61.253C164.256 61.1254 164.178 61.0015 164.093 60.8818C164.016 60.7691 163.929 60.6637 163.834 60.5668C163.672 60.3515 163.448 60.1906 163.193 60.1055C163.097 60.0814 162.996 60.0812 162.9 60.1047C162.804 60.1282 162.715 60.1748 162.641 60.2405L160.886 61.8268C160.796 61.8956 160.724 61.9866 160.679 62.091C160.634 62.1955 160.616 62.3098 160.628 62.423C160.717 62.7685 160.865 63.0959 161.066 63.3905C161.131 63.478 161.163 63.5856 161.156 63.6943C161.138 63.8092 161.078 63.9134 160.988 63.9868C160.918 64.0443 160.83 64.076 160.74 64.0768C160.693 64.0741 160.646 64.0618 160.604 64.0405C160.561 64.0192 160.523 63.9894 160.493 63.953L160.054 63.4355L159.469 62.7493L158.873 62.0517L158.411 61.5343L157.871 60.938L157.196 60.218L156.634 59.543Z" fill="#B26EEA"/>
<path d="M165.285 70.0165C165.263 69.9709 165.252 69.9209 165.252 69.8702C165.252 69.8196 165.263 69.7696 165.285 69.724C165.294 69.6791 165.313 69.6366 165.34 69.5997C165.367 69.5628 165.402 69.5323 165.443 69.5102C165.493 69.4827 165.549 69.4682 165.606 69.4682C165.663 69.4682 165.719 69.4827 165.769 69.5102C165.875 69.5473 165.969 69.6136 166.039 69.7015C166.202 69.878 166.397 70.023 166.613 70.129C166.722 70.1521 166.835 70.151 166.944 70.1257C167.053 70.1005 167.155 70.0517 167.243 69.9827L173.194 66.5065C173.428 66.4006 173.618 66.218 173.734 65.989C173.826 65.7229 173.826 65.4338 173.734 65.1677C173.707 65.0569 173.707 64.9411 173.734 64.8302C173.744 64.7813 173.764 64.735 173.793 64.6944C173.822 64.6537 173.86 64.6195 173.903 64.594C173.996 64.5553 174.101 64.5553 174.195 64.594C174.295 64.6321 174.378 64.7037 174.431 64.7965C174.521 64.954 174.634 65.1453 174.746 65.3815C174.859 65.6178 174.983 65.8315 175.095 66.0565C175.208 66.2815 175.298 66.4502 175.365 66.5852C175.669 67.0802 175.984 67.6203 176.321 68.194C176.659 68.7678 176.985 69.319 177.3 69.814C177.615 70.309 177.863 70.759 178.088 71.119L178.493 71.8052C178.54 71.8998 178.567 72.0033 178.571 72.109C178.568 72.1718 178.548 72.2324 178.512 72.2841C178.476 72.3358 178.426 72.3764 178.369 72.4015C178.038 72.5999 177.735 72.8421 177.469 73.1215C177.216 73.3815 176.934 73.6083 176.625 73.7965C176.549 73.8394 176.465 73.8662 176.378 73.8753C176.342 73.8772 176.307 73.87 176.276 73.8542C176.244 73.8384 176.216 73.8146 176.198 73.7853C176.173 73.7085 176.173 73.6258 176.198 73.549C176.216 73.4328 176.258 73.3216 176.321 73.2228C176.608 72.8452 176.853 72.4379 177.053 72.0078C177.113 71.8062 177.126 71.5931 177.088 71.3859C177.051 71.1787 176.966 70.9832 176.839 70.8153L176.22 69.7465C176.12 69.5739 175.966 69.4394 175.781 69.364C175.675 69.333 175.564 69.326 175.455 69.3435C175.346 69.361 175.242 69.4026 175.151 69.4653L172.991 70.7253C172.845 70.8153 172.766 70.9053 172.755 71.0065C172.749 71.1343 172.784 71.2608 172.856 71.3665L173.396 72.3002C173.45 72.401 173.523 72.4899 173.612 72.5614C173.701 72.633 173.804 72.6857 173.914 72.7165C174.221 72.7865 174.54 72.7865 174.848 72.7165C174.951 72.6893 175.059 72.6893 175.163 72.7165C175.228 72.7497 175.282 72.8003 175.32 72.8627C175.333 72.8929 175.34 72.9254 175.34 72.9584C175.34 72.9913 175.333 73.0239 175.32 73.054C175.32 73.1327 175.196 73.189 175.039 73.2452C174.881 73.3015 174.51 73.4928 174.33 73.594L173.723 73.9315L173.205 74.2465L172.564 74.6853C172.465 74.7886 172.334 74.856 172.193 74.8765C172.091 74.8765 172.024 74.8765 172.001 74.809C171.983 74.7663 171.974 74.7204 171.974 74.674C171.974 74.6276 171.983 74.5817 172.001 74.539C172.027 74.4146 172.09 74.3009 172.181 74.2127C172.406 74.0211 172.586 73.7831 172.71 73.5152C172.754 73.4199 172.776 73.3163 172.776 73.2115C172.776 73.1067 172.754 73.0031 172.71 72.9078L172.373 72.3227L172.024 71.7265C172.004 71.6825 171.972 71.6447 171.933 71.617C171.893 71.5893 171.847 71.5727 171.799 71.569C171.707 71.5574 171.615 71.5816 171.54 71.6365L169.178 73.009C169.017 73.0825 168.892 73.2157 168.829 73.3803C168.805 73.576 168.857 73.7735 168.975 73.9315L169.751 75.259C170.004 75.6811 170.405 75.994 170.876 76.1365C171.353 76.3056 171.868 76.3368 172.361 76.2265C172.463 76.1864 172.575 76.1864 172.676 76.2265C172.745 76.2525 172.805 76.2998 172.845 76.3615C172.867 76.397 172.879 76.4379 172.879 76.4796C172.879 76.5213 172.867 76.5622 172.845 76.5978C172.795 76.6781 172.726 76.7441 172.643 76.789C172.326 76.9651 171.984 77.094 171.63 77.1715L170.393 77.4753C170.263 77.5266 170.118 77.5266 169.988 77.4753C169.862 77.4156 169.76 77.3169 169.695 77.194L169.245 76.4403L168.548 75.2027C168.278 74.7415 168.008 74.2465 167.715 73.7402C167.423 73.234 167.153 72.7503 166.871 72.2778C166.759 72.0753 166.613 71.839 166.433 71.5577C166.253 71.2765 166.084 71.0065 165.915 70.7478C165.746 70.489 165.375 70.1965 165.285 70.0165Z" fill="#B26EEA"/>
<path d="M181.654 108.537C181.66 107.92 181.835 107.317 182.16 106.793C182.468 106.283 182.902 105.86 183.42 105.567C183.945 105.273 184.54 105.126 185.141 105.139C185.763 105.137 186.374 105.304 186.908 105.623C187.409 105.937 187.827 106.37 188.123 106.883C188.419 107.419 188.566 108.025 188.55 108.638C188.551 109.245 188.383 109.841 188.066 110.359C187.752 110.864 187.32 111.285 186.806 111.585C186.266 111.893 185.651 112.044 185.029 112.024C184.425 112.015 183.834 111.844 183.319 111.529C182.814 111.218 182.396 110.785 182.104 110.269C181.796 109.745 181.64 109.145 181.654 108.537Z" fill="#B26EEA"/>
<path d="M34.3351 108.615C34.3302 109.227 34.1591 109.826 33.8402 110.348C33.5348 110.863 33.0977 111.288 32.5737 111.579C32.0498 111.869 31.4579 112.015 30.8589 112.002C30.2362 111.999 29.6257 111.828 29.0926 111.507C28.5883 111.195 28.1705 110.762 27.8776 110.247C27.5875 109.711 27.4403 109.11 27.4501 108.501C27.46 107.892 27.6266 107.296 27.9339 106.77C28.2453 106.266 28.6786 105.848 29.1939 105.555C29.7347 105.248 30.3498 105.096 30.9714 105.117C31.5765 105.118 32.169 105.29 32.6814 105.612C33.186 105.923 33.6038 106.356 33.8963 106.872C34.2025 107.4 34.3545 108.004 34.3351 108.615Z" fill="#B26EEA"/>
<path d="M165.994 145.583C166.275 145.144 166.601 144.672 166.961 144.177L167.963 142.759C168.266 142.32 168.503 141.983 168.649 141.747L169.178 140.891C169.369 140.576 169.571 140.25 169.763 139.913C169.954 139.575 170.156 139.26 170.348 138.968C170.405 138.88 170.482 138.807 170.573 138.754C170.615 138.729 170.664 138.716 170.713 138.716C170.763 138.716 170.811 138.729 170.854 138.754C170.906 138.784 170.951 138.824 170.986 138.873C171.021 138.921 171.045 138.977 171.056 139.035C171.068 139.165 171.049 139.296 171 139.418C170.816 139.811 170.731 140.244 170.753 140.678C170.804 140.855 170.891 141.019 171.009 141.161C171.127 141.302 171.274 141.417 171.439 141.499L180.214 147.124C180.507 147.354 180.877 147.467 181.249 147.439C181.687 147.298 182.077 147.037 182.374 146.685C182.465 146.59 182.576 146.517 182.7 146.471C182.817 146.45 182.938 146.474 183.038 146.539C183.083 146.565 183.12 146.603 183.146 146.648C183.172 146.694 183.185 146.745 183.184 146.798C183.184 146.906 183.152 147.011 183.094 147.101L182.475 148.024C182.25 148.339 182.036 148.654 181.811 148.958C181.586 149.262 181.395 149.543 181.226 149.802C181.058 150.06 180.934 150.285 180.743 150.634L180.101 151.759L179.426 152.884C179.213 153.255 179.033 153.57 178.886 153.795C178.284 154.73 177.522 155.552 176.636 156.225C175.832 156.845 174.915 157.304 173.936 157.575C172.99 157.847 171.996 157.912 171.023 157.766C170.003 157.605 169.031 157.221 168.176 156.641C167.324 156.1 166.584 155.402 165.994 154.583C165.402 153.769 164.974 152.848 164.734 151.872C164.485 150.851 164.451 149.79 164.633 148.755C164.879 147.62 165.341 146.543 165.994 145.583ZM167.119 145.932C166.585 146.694 166.316 147.611 166.354 148.541C166.413 149.443 166.743 150.305 167.299 151.016C167.962 151.871 168.774 152.599 169.695 153.165C170.482 153.682 171.333 154.094 172.226 154.391C172.977 154.638 173.765 154.756 174.555 154.74C175.262 154.71 175.952 154.513 176.569 154.166C177.2 153.805 177.73 153.29 178.11 152.67C178.38 152.254 178.583 151.905 178.74 151.613C178.868 151.382 178.938 151.123 178.943 150.859C178.932 150.746 178.893 150.638 178.83 150.544C178.768 150.45 178.682 150.372 178.583 150.319L170.156 144.93C169.825 144.696 169.436 144.556 169.031 144.525C168.671 144.544 168.325 144.673 168.041 144.896C167.698 145.192 167.405 145.541 167.175 145.932H167.119Z" fill="#B26EEA"/>
<path d="M157.343 156.608C157.419 156.518 157.528 156.461 157.646 156.45C157.691 156.445 157.736 156.45 157.779 156.463C157.821 156.477 157.861 156.499 157.894 156.529C157.935 156.563 157.968 156.606 157.99 156.655C158.011 156.704 158.021 156.757 158.018 156.81C157.992 156.93 157.938 157.042 157.86 157.137C157.644 157.382 157.524 157.698 157.523 158.025C157.561 158.158 157.63 158.28 157.723 158.382C157.817 158.483 157.933 158.562 158.063 158.61L158.963 159.06C158.992 159.084 159.027 159.102 159.063 159.111C159.1 159.121 159.139 159.123 159.176 159.117C159.265 159.093 159.343 159.042 159.401 158.97L161.516 156.777C161.599 156.702 161.633 156.634 161.618 156.574C161.633 156.508 161.633 156.438 161.618 156.372C161.528 156.135 161.438 155.933 161.359 155.775C161.28 155.618 161.19 155.449 161.1 155.292C161.052 155.188 160.982 155.096 160.894 155.022C160.807 154.948 160.704 154.894 160.594 154.864C160.403 154.864 160.088 154.988 159.638 155.314C159.552 155.395 159.448 155.453 159.334 155.483C159.283 155.487 159.232 155.48 159.185 155.46C159.138 155.44 159.096 155.41 159.064 155.37C159.032 155.343 159.008 155.308 158.994 155.269C158.98 155.229 158.977 155.187 158.985 155.145C159.015 155.035 159.073 154.934 159.154 154.853C159.379 154.628 159.57 154.425 159.75 154.279L160.211 153.84L160.684 153.368C160.817 153.234 160.941 153.091 161.055 152.94L161.404 152.513L161.876 151.995C161.956 151.919 162.047 151.854 162.146 151.804C162.196 151.782 162.251 151.776 162.304 151.789C162.357 151.801 162.404 151.83 162.439 151.872C162.529 151.962 162.563 152.052 162.518 152.142C162.489 152.225 162.452 152.304 162.405 152.378C162.288 152.555 162.19 152.743 162.113 152.94C162.046 153.117 162.012 153.303 162.011 153.492C162.009 153.685 162.048 153.877 162.124 154.054L164.858 160.41C164.977 160.73 165.156 161.024 165.386 161.277C165.566 161.445 165.645 161.58 165.623 161.67C165.6 161.76 165.488 162.12 165.364 162.469C165.24 162.818 165.128 163.155 165.026 163.493L164.824 164.179C164.762 164.374 164.691 164.566 164.61 164.753C164.57 164.859 164.513 164.958 164.441 165.045C164.4 165.069 164.354 165.082 164.306 165.082C164.259 165.082 164.212 165.069 164.171 165.045C164.021 165.001 163.874 164.945 163.733 164.877L155.351 161.007C155.118 160.895 154.857 160.855 154.601 160.891C154.345 160.927 154.105 161.038 153.911 161.209C153.837 161.271 153.754 161.32 153.664 161.355C153.574 161.355 153.484 161.355 153.383 161.277C153.351 161.249 153.327 161.214 153.311 161.175C153.295 161.136 153.289 161.094 153.293 161.052C153.306 160.958 153.349 160.871 153.416 160.804C153.72 160.489 154.058 160.152 154.451 159.78C154.845 159.409 155.16 159.094 155.43 158.813C155.7 158.532 155.779 158.442 156.004 158.172L156.701 157.35C156.893 157.092 157.118 156.833 157.343 156.608ZM161.944 157.857L160.436 159.42C160.403 159.445 160.376 159.477 160.359 159.514C160.341 159.552 160.333 159.593 160.335 159.634C160.335 159.702 160.403 159.758 160.504 159.814L161.258 160.152L162.135 160.534L163.013 160.939L163.823 161.355C163.823 161.355 163.924 161.355 163.946 161.355C163.969 161.355 163.946 161.355 163.946 161.209C163.706 160.684 163.448 160.133 163.17 159.555C162.878 158.982 162.608 158.43 162.349 157.879C162.304 157.808 162.242 157.75 162.169 157.71C162.169 157.71 162.045 157.755 161.91 157.857H161.944Z" fill="#B26EEA"/>
<path d="M141.93 168.398C142.164 168.235 142.423 168.11 142.695 168.026C142.925 167.975 143.163 167.975 143.393 168.026C143.698 168.074 143.999 168.145 144.293 168.24L152.28 170.49L152.663 170.591C152.728 170.616 152.8 170.616 152.865 170.591C152.865 170.591 152.865 170.513 152.865 170.434C152.835 170.353 152.793 170.278 152.741 170.209C152.479 169.804 152.164 169.331 151.796 168.791L150.671 167.216L149.771 165.956C149.692 165.834 149.586 165.732 149.461 165.656C149.337 165.58 149.196 165.533 149.051 165.518C148.664 165.539 148.284 165.626 147.926 165.776C147.826 165.814 147.719 165.833 147.611 165.833C147.552 165.827 147.495 165.807 147.444 165.776C147.394 165.745 147.351 165.703 147.319 165.653C147.296 165.613 147.284 165.569 147.284 165.523C147.284 165.478 147.296 165.433 147.319 165.394C147.357 165.31 147.419 165.239 147.499 165.192C147.893 164.933 148.185 164.742 148.376 164.64L149.119 164.19C149.479 163.958 149.805 163.733 150.098 163.515C150.39 163.313 150.638 163.133 150.84 163.009C150.91 162.963 150.993 162.94 151.076 162.942C151.115 162.944 151.153 162.954 151.188 162.972C151.223 162.989 151.254 163.013 151.279 163.043C151.302 163.086 151.313 163.134 151.313 163.183C151.313 163.232 151.302 163.281 151.279 163.324C151.247 163.415 151.193 163.496 151.121 163.56C150.938 163.748 150.786 163.965 150.671 164.201C150.61 164.329 150.586 164.471 150.6 164.612C150.613 164.753 150.665 164.887 150.75 165L151.155 165.765L151.751 166.823L152.494 168.06L153.293 169.365C153.551 169.793 153.821 170.22 154.091 170.636C154.236 170.867 154.438 171.057 154.676 171.188C154.889 171.295 155.125 171.349 155.363 171.345C155.619 171.342 155.873 171.3 156.116 171.221C156.236 171.202 156.357 171.202 156.476 171.221C156.519 171.219 156.562 171.229 156.6 171.249C156.638 171.269 156.67 171.3 156.692 171.337C156.714 171.374 156.726 171.416 156.725 171.459C156.725 171.503 156.713 171.545 156.69 171.581C156.627 171.685 156.538 171.771 156.431 171.829L155.903 172.166L154.98 172.74L153.945 173.393L153.056 173.955C152.949 174.035 152.819 174.078 152.685 174.079C152.578 174.065 152.472 174.038 152.37 174L144.889 171.998L144.698 171.942C144.636 171.918 144.568 171.918 144.506 171.942C144.497 171.959 144.491 171.978 144.491 171.998C144.491 172.017 144.497 172.037 144.506 172.054C144.518 172.119 144.545 172.181 144.585 172.234L146.903 175.609C147.063 175.884 147.308 176.101 147.6 176.228C147.982 176.282 148.372 176.227 148.725 176.07H149.018C149.072 176.068 149.125 176.081 149.172 176.107C149.22 176.132 149.26 176.17 149.288 176.216C149.309 176.254 149.321 176.297 149.321 176.34C149.321 176.384 149.309 176.426 149.288 176.464C149.243 176.54 149.181 176.606 149.108 176.655L148.354 177.139L147.893 177.398C147.758 177.465 147.589 177.566 147.375 177.701C147.161 177.836 147.049 177.927 146.925 178.028L146.52 178.331C146.374 178.444 146.194 178.557 145.98 178.703C145.894 178.761 145.791 178.789 145.688 178.781C145.645 178.785 145.602 178.777 145.562 178.759C145.523 178.742 145.489 178.715 145.463 178.68C145.438 178.637 145.425 178.589 145.425 178.54C145.425 178.49 145.438 178.442 145.463 178.399C145.506 178.311 145.559 178.228 145.62 178.151C145.871 177.959 146.052 177.691 146.138 177.386C146.17 177.083 146.099 176.778 145.935 176.52L142.11 169.793C141.911 169.525 141.779 169.212 141.728 168.881C141.72 168.79 141.734 168.699 141.769 168.615C141.804 168.53 141.86 168.456 141.93 168.398Z" fill="#B26EEA"/>
<path d="M131.366 173.235C132.172 172.918 133.022 172.729 133.886 172.673C134.645 172.621 135.407 172.704 136.136 172.92C136.827 173.135 137.464 173.495 138.004 173.978C138.543 174.465 138.955 175.074 139.207 175.755C139.457 176.411 139.56 177.114 139.511 177.814C139.463 178.566 139.264 179.3 138.926 179.974C138.53 180.727 137.991 181.395 137.34 181.943C136.562 182.607 135.67 183.126 134.707 183.473C134.367 183.594 134.017 183.688 133.661 183.754C133.268 183.833 132.874 183.889 132.536 183.934C132.226 183.962 131.913 183.962 131.603 183.934C131.524 183.946 131.445 183.946 131.366 183.934C131.288 183.901 131.224 183.841 131.186 183.765C130.975 183.401 130.784 183.025 130.613 182.64C130.466 182.28 130.365 182.055 130.331 181.954C130.3 181.895 130.289 181.828 130.302 181.762C130.314 181.697 130.348 181.637 130.399 181.594C130.51 181.515 130.646 181.479 130.781 181.493C130.917 181.497 131.046 181.554 131.141 181.65C131.397 181.958 131.692 182.231 132.019 182.46C132.331 182.675 132.697 182.8 133.076 182.82C133.583 182.832 134.086 182.732 134.55 182.528C135.141 182.338 135.641 181.938 135.956 181.403C136.254 180.842 136.405 180.215 136.395 179.58C136.391 178.895 136.261 178.216 136.013 177.578C135.719 176.775 135.314 176.017 134.809 175.328C134.423 174.813 133.895 174.422 133.29 174.203C132.654 174.017 131.973 174.061 131.366 174.327C130.916 174.49 130.503 174.743 130.151 175.069C129.83 175.381 129.59 175.767 129.454 176.194C129.304 176.655 129.232 177.138 129.24 177.623C129.253 177.729 129.229 177.837 129.171 177.927C129.114 178.017 129.027 178.085 128.925 178.118C128.723 178.185 128.576 178.118 128.509 177.972C128.441 177.825 128.385 177.612 128.329 177.409C128.263 177.192 128.214 176.97 128.183 176.745C128.183 176.498 128.104 176.216 128.07 175.902C128.039 175.795 128.039 175.682 128.07 175.575L128.205 175.294C128.584 174.924 128.999 174.593 129.443 174.304C130.039 173.873 130.685 173.514 131.366 173.235Z" fill="#B26EEA"/>
<path d="M123.953 175.755C124.052 175.741 124.152 175.765 124.234 175.823C124.307 175.884 124.358 175.967 124.38 176.059C124.391 176.115 124.389 176.173 124.373 176.227C124.357 176.282 124.329 176.332 124.29 176.374C124.219 176.461 124.125 176.527 124.02 176.565C123.796 176.643 123.593 176.77 123.424 176.937C123.362 177.032 123.322 177.14 123.306 177.253C123.291 177.366 123.3 177.48 123.334 177.589L124.459 184.339C124.454 184.48 124.481 184.621 124.539 184.75C124.596 184.879 124.683 184.993 124.792 185.083C124.9 185.173 125.028 185.237 125.166 185.27C125.303 185.303 125.446 185.304 125.584 185.273C125.696 185.279 125.804 185.314 125.899 185.374C125.94 185.401 125.976 185.436 126.003 185.478C126.03 185.519 126.048 185.566 126.055 185.615C126.063 185.664 126.06 185.714 126.046 185.762C126.033 185.809 126.009 185.854 125.978 185.892C125.912 185.977 125.815 186.034 125.708 186.049L125.055 186.139L124.301 186.218L123.705 186.285L121.86 186.612L120.004 186.949L118.496 187.219L117.72 187.365C117.617 187.391 117.508 187.391 117.405 187.365C117.347 187.343 117.298 187.305 117.262 187.255C117.226 187.205 117.205 187.146 117.203 187.084C117.13 186.697 117.013 186.32 116.854 185.959C116.692 185.636 116.579 185.291 116.516 184.935C116.499 184.85 116.499 184.762 116.516 184.677C116.525 184.641 116.545 184.608 116.574 184.584C116.602 184.56 116.637 184.545 116.674 184.542C116.747 184.518 116.826 184.518 116.899 184.542C116.998 184.605 117.086 184.685 117.158 184.778C117.41 185.182 117.704 185.56 118.035 185.903C118.203 186.031 118.398 186.118 118.605 186.157C118.812 186.196 119.025 186.186 119.228 186.128L120.443 185.914C120.641 185.888 120.825 185.792 120.96 185.644C121.026 185.555 121.071 185.452 121.092 185.343C121.114 185.234 121.111 185.122 121.084 185.014L120.668 182.55C120.666 182.487 120.649 182.425 120.617 182.37C120.586 182.315 120.541 182.269 120.488 182.235C120.37 182.199 120.245 182.199 120.128 182.235L119.059 182.415C118.946 182.427 118.837 182.462 118.738 182.518C118.639 182.574 118.553 182.651 118.485 182.742C118.326 183.014 118.227 183.317 118.193 183.63C118.176 183.739 118.129 183.84 118.058 183.923C118.002 183.968 117.937 183.999 117.866 184.013C117.832 184.019 117.797 184.014 117.765 184C117.733 183.986 117.705 183.963 117.686 183.934C117.621 183.839 117.593 183.723 117.608 183.608C117.608 183.293 117.608 183.023 117.529 182.82C117.45 182.618 117.529 182.382 117.428 182.134C117.326 181.887 117.349 181.684 117.315 181.527C117.281 181.369 117.225 181.122 117.135 180.784C117.089 180.645 117.089 180.495 117.135 180.357C117.135 180.267 117.203 180.222 117.27 180.21C117.361 180.205 117.452 180.228 117.529 180.278C117.63 180.355 117.711 180.455 117.765 180.57C117.868 180.848 118.03 181.101 118.238 181.313C118.315 181.381 118.407 181.432 118.506 181.461C118.605 181.49 118.709 181.497 118.811 181.482L119.486 181.369L120.161 181.257C120.211 181.255 120.26 181.239 120.302 181.211C120.344 181.184 120.377 181.145 120.398 181.099C120.426 181.015 120.426 180.924 120.398 180.84L119.948 178.152C119.943 178.064 119.92 177.978 119.881 177.898C119.843 177.819 119.789 177.748 119.723 177.69C119.633 177.653 119.538 177.634 119.441 177.634C119.345 177.634 119.249 177.653 119.16 177.69L117.641 177.938C117.153 178.02 116.715 178.286 116.415 178.68C116.098 179.074 115.889 179.543 115.808 180.042C115.808 180.146 115.768 180.247 115.695 180.323C115.646 180.383 115.579 180.426 115.504 180.447C115.462 180.452 115.419 180.447 115.38 180.431C115.34 180.415 115.306 180.39 115.279 180.357C115.225 180.278 115.187 180.19 115.166 180.098C115.111 179.725 115.111 179.346 115.166 178.973C115.166 178.635 115.268 178.208 115.324 177.702C115.32 177.633 115.331 177.564 115.356 177.5C115.381 177.436 115.42 177.378 115.47 177.33C115.568 177.233 115.694 177.17 115.83 177.15L116.696 177.004L118.103 176.779L119.756 176.532L121.433 176.262L122.254 176.093L123.199 175.902L123.953 175.755Z" fill="#B26EEA"/>
<path d="M106.223 177.533C106.324 177.545 106.421 177.584 106.504 177.645C106.594 177.713 106.65 177.792 106.639 177.859C106.641 177.917 106.628 177.975 106.6 178.027C106.572 178.078 106.531 178.121 106.481 178.152C106.389 178.208 106.285 178.243 106.177 178.253C105.871 178.277 105.57 178.353 105.289 178.478C105.2 178.543 105.13 178.63 105.084 178.731C105.039 178.831 105.02 178.942 105.03 179.052L104.569 186.308C104.553 186.395 104.555 186.485 104.574 186.572C104.594 186.659 104.63 186.741 104.681 186.814C104.785 186.911 104.922 186.964 105.064 186.96H105.559C105.738 186.968 105.917 186.938 106.083 186.873C106.25 186.807 106.401 186.706 106.526 186.578C106.826 186.319 107.104 186.037 107.359 185.734C107.359 185.667 107.494 185.554 107.618 185.419C107.741 185.284 107.854 185.16 107.978 185.037C108.082 184.939 108.218 184.883 108.36 184.879C108.437 184.893 108.51 184.924 108.574 184.969C108.613 184.988 108.645 185.019 108.665 185.057C108.686 185.096 108.693 185.14 108.686 185.183C108.672 185.321 108.629 185.455 108.562 185.577C108.433 185.829 108.328 186.092 108.248 186.364C108.06 186.969 107.914 187.585 107.809 188.209C107.799 188.28 107.775 188.349 107.738 188.411C107.702 188.472 107.653 188.526 107.595 188.569C107.499 188.634 107.385 188.666 107.269 188.659C107.157 188.646 107.054 188.594 106.976 188.513C106.888 188.413 106.786 188.325 106.673 188.254C106.534 188.143 106.378 188.056 106.211 187.995C105.95 187.924 105.683 187.883 105.413 187.872L100.282 187.545C99.6292 187.494 98.9727 187.586 98.3588 187.815L98.01 187.973C97.9304 188.015 97.841 188.034 97.7512 188.029C97.7071 188.032 97.663 188.023 97.6234 188.004C97.5838 187.984 97.5503 187.954 97.5263 187.917C97.5007 187.828 97.5007 187.735 97.5263 187.647C97.5263 187.099 97.5263 186.66 97.5263 186.33C97.5263 186.004 97.5263 185.734 97.5263 185.52C97.515 185.303 97.515 185.085 97.5263 184.868C97.5503 184.732 97.5919 184.599 97.65 184.474C97.7175 184.283 97.8301 184.204 97.9876 184.227C98.0966 184.237 98.1973 184.29 98.2688 184.373C98.3773 184.505 98.4473 184.665 98.4713 184.834C98.5582 185.286 98.7301 185.717 98.9776 186.105C99.0566 186.237 99.1644 186.349 99.293 186.433C99.4216 186.517 99.5677 186.57 99.72 186.589H100.451C100.541 186.597 100.631 186.586 100.717 186.557C100.802 186.528 100.88 186.482 100.946 186.42C101.067 186.309 101.143 186.157 101.16 185.993L101.61 178.759C101.625 178.649 101.612 178.537 101.572 178.433C101.533 178.329 101.469 178.236 101.385 178.163C101.142 177.981 100.861 177.854 100.564 177.792C100.472 177.767 100.387 177.721 100.316 177.657C100.275 177.624 100.242 177.58 100.222 177.531C100.203 177.482 100.196 177.428 100.204 177.375C100.206 177.332 100.219 177.291 100.243 177.255C100.267 177.22 100.3 177.191 100.339 177.173C100.418 177.119 100.514 177.095 100.609 177.105C100.823 177.105 101.126 177.105 101.498 177.184L102.623 177.285L103.522 177.353C103.725 177.353 103.995 177.353 104.344 177.353H105.379L106.223 177.533Z" fill="#B26EEA"/>
<path d="M89.7638 174.833C90.7691 175.103 91.6976 175.603 92.4751 176.295C93.2146 176.937 93.7829 177.753 94.1288 178.669C94.4667 179.587 94.5022 180.588 94.23 181.527C94.0401 182.207 93.7149 182.842 93.2738 183.394C92.8172 183.948 92.2599 184.409 91.6314 184.755C90.9351 185.131 90.1695 185.361 89.3814 185.43C88.488 185.518 87.5861 185.43 86.7264 185.172C85.9641 184.963 85.239 184.637 84.5776 184.204C83.9524 183.787 83.4106 183.257 82.98 182.64C82.5673 182.046 82.2732 181.378 82.1138 180.672C81.9623 179.952 81.9894 179.207 82.1926 178.5C82.4394 177.588 82.9294 176.76 83.6101 176.104C84.3216 175.403 85.2131 174.912 86.1863 174.687C87.3707 174.419 88.6052 174.469 89.7638 174.833ZM89.2913 175.755C88.9257 175.637 88.5319 175.637 88.1663 175.755C87.8001 175.888 87.472 176.108 87.2101 176.397C86.8955 176.73 86.6338 177.109 86.4339 177.522C86.2056 178.016 86.0174 178.527 85.8714 179.052C85.6492 179.819 85.5392 180.615 85.5451 181.414C85.5328 182.054 85.6756 182.687 85.9613 183.259C86.0896 183.497 86.2658 183.706 86.4788 183.873C86.6918 184.039 86.9369 184.16 87.1988 184.227C87.4312 184.3 87.6765 184.324 87.9187 184.297C88.1609 184.27 88.3947 184.192 88.605 184.069C89.0753 183.779 89.4627 183.372 89.73 182.888C90.0933 182.273 90.3697 181.61 90.5513 180.919C90.7733 180.14 90.8907 179.334 90.9001 178.523C90.918 177.883 90.7749 177.248 90.4838 176.678C90.3559 176.453 90.1847 176.256 89.98 176.097C89.7753 175.939 89.5412 175.823 89.2913 175.755Z" fill="#B26EEA"/>
<path d="M77.6137 170.648C77.7294 170.704 77.8213 170.8 77.8726 170.918C77.8953 170.959 77.9071 171.006 77.9071 171.053C77.9071 171.1 77.8953 171.147 77.8726 171.188C77.846 171.235 77.8086 171.274 77.7636 171.304C77.7186 171.333 77.6672 171.351 77.6137 171.357C77.484 171.385 77.3498 171.385 77.22 171.357C76.8348 171.218 76.4242 171.164 76.0163 171.199C75.8407 171.244 75.6774 171.327 75.539 171.444C75.4006 171.561 75.2906 171.708 75.2165 171.874L69.8176 180.874C69.6726 181.096 69.5732 181.345 69.5251 181.605C69.4937 181.816 69.5462 182.03 69.6713 182.202C69.859 182.474 70.078 182.723 70.3238 182.944C70.56 183.169 70.6163 183.394 70.4925 183.608C70.4652 183.65 70.4287 183.684 70.3858 183.71C70.3429 183.735 70.2948 183.75 70.2451 183.754C70.1304 183.752 70.0181 183.721 69.9188 183.664C69.615 183.484 69.3001 183.282 68.9738 183.068L68.0176 182.427L67.1626 181.875L66.2287 181.347L65.1037 180.75L64.1137 180.188C64.0178 180.137 63.9395 180.059 63.8888 179.963C63.8671 179.923 63.8558 179.879 63.8558 179.834C63.8558 179.788 63.8671 179.744 63.8888 179.704C63.9142 179.648 63.9533 179.599 64.0024 179.562C64.0515 179.524 64.1091 179.5 64.17 179.49C64.2964 179.466 64.4262 179.466 64.5525 179.49C64.9928 179.644 65.4595 179.709 65.9251 179.682C66.0963 179.634 66.2552 179.55 66.3911 179.436C66.527 179.321 66.6367 179.179 66.7126 179.018L72.0225 170.153C72.2169 169.884 72.2988 169.548 72.2476 169.219C72.1169 168.902 71.872 168.645 71.5612 168.499L69.5588 167.295C69.2958 167.128 69.0008 167.017 68.6926 166.969C68.4093 166.924 68.1208 166.924 67.8376 166.969C67.4846 167.04 67.1435 167.161 66.825 167.329C66.4926 167.492 66.1729 167.68 65.8688 167.892C65.6785 168.028 65.4702 168.138 65.25 168.218C65.2046 168.241 65.1545 168.253 65.1037 168.253C65.053 168.253 65.0029 168.241 64.9575 168.218C64.9107 168.191 64.8728 168.152 64.8487 168.104C64.8247 168.055 64.8155 168.001 64.8225 167.948C64.8356 167.844 64.8702 167.745 64.9238 167.655C64.9608 167.6 65.0064 167.55 65.0588 167.509C65.1292 167.455 65.1869 167.386 65.2276 167.307L66.0825 166.474C66.33 166.238 66.5551 166.002 66.7576 165.777C66.9601 165.552 67.1625 165.282 67.3988 165C67.4635 164.915 67.5435 164.842 67.635 164.787C67.6808 164.759 67.7333 164.744 67.7869 164.744C67.8404 164.744 67.893 164.759 67.9388 164.787L69.0638 165.529L70.8076 166.654L72.7876 167.88C73.4513 168.297 74.07 168.679 74.655 169.005C74.925 169.174 75.2513 169.354 75.6113 169.557L76.6688 170.13C76.9934 170.285 77.3088 170.458 77.6137 170.648Z" fill="#B26EEA"/>
<path d="M66.6114 163.774C66.69 163.837 66.7518 163.918 66.7913 164.01C66.8152 164.049 66.8278 164.094 66.8278 164.14C66.8278 164.186 66.8152 164.23 66.7913 164.269C66.7611 164.313 66.7208 164.349 66.6739 164.375C66.627 164.4 66.5747 164.414 66.5213 164.415C66.4091 164.423 66.2978 164.391 66.2064 164.325C65.9881 164.199 65.7475 164.115 65.4977 164.078C65.3064 164.078 65.1151 164.19 64.9014 164.449L60.5026 169.86C60.3166 170.045 60.2114 170.296 60.2101 170.558C60.2684 170.84 60.3961 171.103 60.5814 171.323C60.6548 171.415 60.7049 171.523 60.7277 171.638C60.7392 171.689 60.738 171.743 60.7243 171.794C60.7105 171.845 60.6847 171.892 60.6489 171.93C60.622 171.973 60.5825 172.005 60.536 172.023C60.4895 172.041 60.4384 172.044 60.3901 172.032C60.2911 172.008 60.1988 171.962 60.1201 171.897L59.4901 171.357L58.7701 170.704C58.5226 170.479 58.3089 170.299 58.1289 170.153L57.4426 169.635L56.5989 168.983L55.9127 168.443C55.8341 168.385 55.7783 168.301 55.7551 168.207C55.7444 168.168 55.7439 168.126 55.7538 168.087C55.7636 168.047 55.7834 168.011 55.8113 167.982C55.841 167.945 55.8789 167.916 55.9219 167.896C55.9648 167.877 56.0118 167.867 56.0589 167.869C56.1597 167.855 56.2619 167.855 56.3627 167.869C56.5976 167.963 56.8431 168.027 57.0938 168.06C57.1629 168.07 57.2333 168.067 57.3009 168.049C57.3685 168.032 57.432 168.001 57.4877 167.959C57.6136 167.853 57.7268 167.732 57.8251 167.599L62.1676 162.255C62.2461 162.174 62.306 162.077 62.343 161.97C62.3799 161.863 62.393 161.749 62.3814 161.637C62.3188 161.403 62.216 161.182 62.0776 160.984C62.0204 160.881 61.9751 160.771 61.9426 160.658C61.9311 160.606 61.9322 160.553 61.9459 160.502C61.9596 160.451 61.9855 160.404 62.0213 160.365C62.0479 160.328 62.0837 160.298 62.125 160.279C62.1663 160.259 62.212 160.25 62.2577 160.253C62.3418 160.259 62.4231 160.286 62.4939 160.332L63.1463 160.905L63.9452 161.592L64.5976 162.143L65.2388 162.649L66.0039 163.223L66.6114 163.774Z" fill="#B26EEA"/>
<path d="M59.355 157.631C59.4265 157.708 59.4666 157.808 59.4675 157.913C59.468 157.963 59.4584 158.013 59.4391 158.059C59.4197 158.106 59.3911 158.148 59.355 158.183C59.3164 158.22 59.2704 158.248 59.2199 158.265C59.1694 158.283 59.1157 158.289 59.0625 158.284C58.9592 158.269 58.862 158.226 58.7812 158.16C58.562 157.953 58.2956 157.802 58.0051 157.721C57.8951 157.715 57.7851 157.734 57.6837 157.777C57.5823 157.82 57.4921 157.886 57.42 157.969L52.0763 162.705C51.9953 162.764 51.9282 162.84 51.8796 162.927C51.831 163.015 51.8022 163.112 51.795 163.211C51.8199 163.487 51.9256 163.749 52.0988 163.965C52.1608 164.07 52.1883 164.192 52.1775 164.314C52.1754 164.359 52.1644 164.403 52.1451 164.443C52.1258 164.484 52.0986 164.52 52.065 164.55C52.0285 164.586 51.9837 164.612 51.9346 164.626C51.8854 164.639 51.8335 164.64 51.7838 164.629C51.7308 164.626 51.6791 164.611 51.6324 164.586C51.5858 164.561 51.5452 164.525 51.5138 164.483C51.39 164.348 51.2438 164.179 51.075 163.965C50.9063 163.751 50.7488 163.549 50.5913 163.346L50.2088 162.885C49.8263 162.446 49.41 161.985 48.9488 161.479L47.6326 160.028L46.5076 158.835L45.9338 158.205C45.8692 158.118 45.8232 158.018 45.7988 157.913C45.7869 157.85 45.792 157.786 45.8138 157.727C45.8356 157.667 45.8732 157.615 45.9226 157.575L46.6313 156.9L47.1263 156.428L47.6326 155.966C47.6598 155.937 47.6928 155.914 47.7297 155.898C47.7665 155.883 47.8063 155.875 47.8463 155.876C47.8802 155.876 47.9138 155.883 47.9449 155.896C47.9759 155.91 48.0037 155.93 48.0263 155.955C48.0714 156.018 48.0986 156.092 48.105 156.169C48.1122 156.282 48.0889 156.394 48.0376 156.495C47.8308 156.926 47.6505 157.37 47.4976 157.823C47.4596 158.018 47.4739 158.219 47.5391 158.407C47.6043 158.595 47.718 158.762 47.8688 158.891L48.5776 159.701C48.7496 159.893 48.9606 160.047 49.1964 160.151C49.3015 160.197 49.418 160.21 49.5306 160.188C49.6432 160.166 49.7464 160.11 49.8263 160.028L51.6488 158.419C51.7085 158.375 51.757 158.317 51.7902 158.25C51.8235 158.184 51.8405 158.111 51.8401 158.036C51.8285 157.888 51.7647 157.749 51.66 157.643L50.8388 156.709C50.77 156.631 50.6818 156.572 50.5831 156.538C50.4844 156.505 50.3786 156.498 50.2763 156.518C49.9803 156.567 49.6901 156.646 49.41 156.754C49.306 156.773 49.1991 156.773 49.095 156.754C49.0223 156.734 48.9562 156.695 48.9038 156.641C48.8849 156.611 48.8747 156.576 48.8747 156.54C48.8747 156.504 48.8849 156.469 48.9038 156.439C48.9519 156.342 49.0258 156.26 49.1175 156.203C49.32 156.034 49.5338 155.876 49.7476 155.719C49.9613 155.561 50.175 155.381 50.3775 155.201C50.5484 155.062 50.7066 154.908 50.8501 154.74C50.9738 154.594 51.1314 154.436 51.3001 154.268C51.3917 154.155 51.5122 154.069 51.6488 154.02C51.6796 154.002 51.7144 153.993 51.75 153.993C51.7855 153.993 51.8206 154.002 51.8513 154.02C51.8964 154.083 51.9236 154.157 51.93 154.234C51.9437 154.369 51.9078 154.505 51.8288 154.616C51.6543 154.839 51.5383 155.102 51.4913 155.381C51.4803 155.571 51.536 155.758 51.6488 155.91L51.8962 156.293C51.975 156.394 52.0539 156.506 52.1439 156.608C52.3124 156.819 52.5393 156.975 52.7963 157.058C52.8918 157.087 52.9935 157.09 53.0906 157.067C53.1877 157.043 53.2765 156.993 53.3475 156.923L55.1026 155.336C55.194 155.271 55.2661 155.182 55.3116 155.079C55.3571 154.976 55.3744 154.863 55.3613 154.751C55.2724 154.406 55.1239 154.078 54.9226 153.784C54.8577 153.696 54.8257 153.589 54.8325 153.48C54.8508 153.365 54.9109 153.261 55.0013 153.188C55.0344 153.157 55.0734 153.133 55.1159 153.117C55.1584 153.102 55.2035 153.095 55.2487 153.098C55.2941 153.097 55.3391 153.106 55.3802 153.126C55.4212 153.146 55.4571 153.174 55.4851 153.21L55.9351 153.728L56.52 154.425L57.1163 155.123L57.5776 155.629C57.7126 155.798 57.8925 155.989 58.1175 156.236L58.7812 156.945L59.355 157.631Z" fill="#B26EEA"/>
<path d="M50.7151 147.136C50.7369 147.179 50.7482 147.227 50.7482 147.276C50.7482 147.325 50.7369 147.373 50.7151 147.417C50.6944 147.51 50.6378 147.591 50.5576 147.642C50.5049 147.667 50.4472 147.68 50.3888 147.68C50.3304 147.68 50.2728 147.667 50.22 147.642C50.1165 147.612 50.0256 147.548 49.9613 147.462C49.8012 147.282 49.606 147.136 49.3875 147.034C49.2782 147.011 49.1651 147.012 49.0563 147.038C48.9475 147.063 48.8456 147.112 48.7576 147.181L42.8063 150.646C42.5726 150.751 42.3821 150.934 42.2663 151.163C42.1746 151.433 42.1746 151.726 42.2663 151.996C42.2935 152.103 42.2935 152.215 42.2663 152.322C42.2562 152.371 42.2359 152.417 42.2069 152.458C42.1778 152.498 42.1406 152.533 42.0976 152.558C42.0528 152.583 42.0024 152.596 41.9513 152.596C41.9002 152.596 41.8499 152.583 41.8051 152.558C41.706 152.524 41.6223 152.457 41.5688 152.367C41.4788 152.209 41.3663 152.007 41.2538 151.782L40.905 151.107C40.8238 150.924 40.7298 150.747 40.6238 150.578C40.3313 150.072 40.0163 149.532 39.6788 148.969L38.7 147.338L37.9126 146.033C37.6988 145.673 37.5526 145.448 37.5076 145.358C37.4552 145.265 37.428 145.161 37.4288 145.054C37.4312 144.99 37.4514 144.927 37.4872 144.874C37.5229 144.82 37.5728 144.777 37.6313 144.751C37.9577 144.55 38.2596 144.312 38.5313 144.042C38.7766 143.775 39.0611 143.548 39.375 143.367C39.449 143.319 39.5346 143.292 39.6226 143.288C39.6583 143.282 39.695 143.287 39.7274 143.303C39.7598 143.319 39.7862 143.346 39.8025 143.378C39.8275 143.455 39.8275 143.538 39.8025 143.614C39.7853 143.733 39.7389 143.845 39.6675 143.941C39.3818 144.313 39.1401 144.717 38.9475 145.144C38.886 145.346 38.8733 145.559 38.9104 145.766C38.9476 145.974 39.0336 146.169 39.1613 146.337L39.78 147.406C39.8762 147.581 40.0318 147.717 40.2188 147.788C40.3247 147.819 40.4362 147.826 40.5452 147.809C40.6542 147.791 40.758 147.749 40.8488 147.687L43.0089 146.427C43.1551 146.337 43.2338 146.247 43.2451 146.146C43.25 146.018 43.2146 145.892 43.1439 145.786L42.6038 144.863C42.5503 144.761 42.477 144.671 42.3882 144.597C42.2993 144.524 42.1967 144.469 42.0863 144.436C41.7778 144.377 41.4611 144.377 41.1526 144.436C41.0492 144.461 40.941 144.461 40.8376 144.436C40.7721 144.398 40.7177 144.344 40.6801 144.278C40.6667 144.248 40.6599 144.215 40.6599 144.182C40.6599 144.149 40.6667 144.117 40.6801 144.087C40.7437 143.994 40.8403 143.93 40.95 143.907C41.2538 143.772 41.4901 143.648 41.6701 143.558L42.2776 143.209L42.7951 142.894L43.4363 142.456C43.5384 142.357 43.6677 142.29 43.8076 142.264C43.9088 142.264 43.9763 142.264 43.9988 142.343C44.0164 142.384 44.0255 142.428 44.0255 142.472C44.0255 142.517 44.0164 142.561 43.9988 142.602C43.9708 142.729 43.9086 142.845 43.8188 142.939C43.5944 143.131 43.414 143.369 43.2901 143.637C43.2436 143.729 43.2194 143.831 43.2194 143.935C43.2194 144.038 43.2436 144.141 43.2901 144.233L43.6276 144.829C43.7513 145.043 43.8751 145.234 43.9764 145.426C44.0776 145.617 44.1113 145.583 44.2013 145.583C44.292 145.584 44.3812 145.56 44.46 145.516L46.8225 144.143C46.9815 144.062 47.1056 143.926 47.1713 143.761C47.1937 143.568 47.1413 143.375 47.0251 143.221L46.2488 141.893C45.9996 141.465 45.5976 141.148 45.1238 141.004C44.6459 140.841 44.1329 140.81 43.6388 140.914C43.5376 140.954 43.425 140.954 43.3238 140.914C43.2592 140.881 43.2018 140.835 43.155 140.779C43.1333 140.742 43.1219 140.699 43.1219 140.656C43.1219 140.612 43.1333 140.569 43.155 140.532C43.205 140.452 43.2748 140.386 43.3576 140.341C43.6769 140.169 44.0173 140.041 44.3701 139.958C44.7076 139.891 45.1238 139.789 45.6076 139.654C45.7377 139.603 45.8824 139.603 46.0125 139.654C46.1399 139.711 46.2434 139.81 46.3051 139.936C46.3951 140.082 46.5413 140.329 46.7438 140.689C46.9463 141.049 47.1938 141.454 47.4526 141.916L48.2851 143.378C48.5663 143.884 48.8476 144.379 49.1288 144.852C49.2413 145.054 49.3876 145.291 49.5676 145.561L50.085 146.382C50.385 146.697 50.5951 146.948 50.7151 147.136Z" fill="#B26EEA"/>
</g>
<defs>
<clipPath id="clip0_387_830">
<rect width="216" height="216" fill="white" transform="translate(6.10352e-05 0.570312)"/>
</clipPath>
</defs>
</svg>
