<svg width="232" height="232" viewBox="0 0 232 232" fill="none" xmlns="http://www.w3.org/2000/svg">
<g clip-path="url(#clip0_387_791)">
<path d="M116 232C180.065 232 232 180.065 232 116C232 51.935 180.065 0 116 0C51.935 0 0 51.935 0 116C0 180.065 51.935 232 116 232Z" fill="#141214"/>
<path d="M116 217.5C172.057 217.5 217.5 172.057 217.5 116C217.5 59.9431 172.057 14.5 116 14.5C59.9431 14.5 14.5 59.9431 14.5 116C14.5 172.057 59.9431 217.5 116 217.5Z" stroke="#FCE44B" stroke-width="0.875" stroke-miterlimit="10"/>
<path d="M35.3437 87.8093C34.7115 87.9331 34.1332 88.2497 33.6883 88.7156C33.1999 89.2358 32.8436 89.8657 32.6491 90.5522C32.4501 91.1304 32.3773 91.7444 32.4357 92.3531C32.4941 92.9617 32.6822 93.5508 32.9875 94.0806C33.7603 95.1612 34.8728 95.9519 36.1474 96.3264C37.4221 96.7009 38.7854 96.6377 40.0199 96.1468C40.5938 95.8301 41.096 95.3983 41.4953 94.8785C41.8945 94.3587 42.1821 93.7621 42.34 93.126C42.6307 92.2348 42.6307 91.2743 42.34 90.3831C42.0084 89.5004 41.4082 88.7439 40.6241 88.2201L39.0776 93.3435L36.105 92.4493L38.7513 83.6647L42.5092 84.8005C43.4787 85.4504 44.3019 86.2955 44.9261 87.2817C45.5504 88.268 45.9618 89.3737 46.1342 90.5281C46.322 91.861 46.2106 93.219 45.8079 94.5035C45.3694 96.0405 44.5362 97.4361 43.3912 98.5514C42.3226 99.6041 40.9779 100.333 39.5125 100.654C37.9507 100.975 36.3328 100.892 34.8121 100.412C33.275 99.9737 31.8795 99.1405 30.7642 97.9956C29.7123 96.9233 28.9873 95.5738 28.6738 94.1047C28.3406 92.5479 28.4239 90.9307 28.9154 89.4164C29.3936 87.6184 30.4249 86.0163 31.8637 84.8368C33.2384 83.7651 34.9572 83.2324 36.697 83.3385L35.3437 87.8093Z" fill="#FCE44B"/>
<path d="M49.2637 79.3272L44.0438 79.436L43.7175 80.0643L47.7775 82.191L46.4 84.801L35.67 79.1943L37.9658 74.796C38.3373 74.0381 38.8792 73.3765 39.5488 72.8627C40.1053 72.4517 40.7677 72.2085 41.4579 72.1618C42.1393 72.1419 42.814 72.3002 43.4154 72.621C44.105 72.9727 44.6639 73.5358 45.0103 74.2281C45.3704 74.9804 45.4602 75.834 45.2642 76.6447L50.8104 76.391L49.2637 79.3272ZM41.8687 79.0977L42.7146 77.4785C42.9393 77.1185 43.0171 76.6859 42.932 76.2702C42.865 76.0754 42.7585 75.8965 42.6192 75.7448C42.4799 75.593 42.3109 75.4716 42.1226 75.3881C41.945 75.2747 41.7441 75.2027 41.5349 75.1776C41.3257 75.1525 41.1136 75.1749 40.9142 75.2431C40.502 75.4081 40.1718 75.7295 39.9959 76.1373L39.15 77.7564L41.8687 79.0977Z" fill="#FCE44B"/>
<path d="M54.1212 68.0529L51.4509 71.6779L52.7437 73.5266L50.9191 76.0158L43.6691 65.3341L45.6871 62.5791L58.0483 66.2041L56.2116 68.7295L54.1212 68.0529ZM51.8254 67.3157L47.3667 65.9141L50.0613 69.7324L51.8254 67.3157Z" fill="#FCE44B"/>
<path d="M52.2725 58.9428C51.9827 57.9361 51.9827 56.8682 52.2725 55.8615C52.5807 54.8046 53.1597 53.8466 53.9521 53.0823C54.8739 52.1348 56.078 51.5116 57.3838 51.3061C58.644 51.1288 59.9264 51.3981 61.0088 52.0673L58.713 54.3511C58.22 54.1605 57.6811 54.1226 57.1663 54.2424C56.6522 54.3764 56.1843 54.6479 55.8129 55.0278C55.5053 55.307 55.2641 55.6518 55.1073 56.0365C54.9505 56.4213 54.8819 56.8363 54.9067 57.2511C55.0307 58.1689 55.4525 59.0206 56.1074 59.6755C56.7622 60.3303 57.6139 60.7521 58.5317 60.8761C58.9462 60.9023 59.3613 60.8368 59.7477 60.6844C60.1341 60.5319 60.4821 60.2962 60.7671 59.994C61.1561 59.6327 61.433 59.1671 61.5646 58.6528C61.6991 58.1411 61.6695 57.6001 61.48 57.1061L63.7879 54.8344C64.4455 55.921 64.702 57.2035 64.5129 58.4594C64.2859 59.7642 63.6413 60.96 62.6762 61.8669C61.9064 62.6532 60.9441 63.224 59.885 63.5223C58.8825 63.8124 57.8183 63.8124 56.8158 63.5223C55.7479 63.198 54.7822 62.6028 54.0125 61.7944C53.1949 61.011 52.5952 60.0282 52.2725 58.9428Z" fill="#FCE44B"/>
<path d="M62.6883 45.7354L70.1679 55.257L67.8479 57.0816L60.3684 47.5599L62.6883 45.7354Z" fill="#FCE44B"/>
<path d="M76.7896 48.2363L72.947 50.653L73.4546 52.8642L70.8324 54.4834L68.1742 41.8805L71.0863 40.0801L81.1879 48.0671L78.5297 49.7226L76.7896 48.2363ZM74.9408 46.6897L71.3158 43.7171L72.3791 48.2605L74.9408 46.6897Z" fill="#FCE44B"/>
<path d="M83.6166 46.7262C82.8984 46.7482 82.1878 46.5726 81.5624 46.2187C80.9345 45.8442 80.4401 45.2821 80.1487 44.6117L83.0246 43.4033C83.2069 43.7497 83.5067 44.0197 83.8703 44.1646C84.2322 44.2691 84.6201 44.2346 84.9579 44.0679C85.3057 43.9446 85.5974 43.7 85.7796 43.3791C85.8518 43.2368 85.8893 43.0796 85.8893 42.92C85.8893 42.7604 85.8518 42.6031 85.7796 42.4608C85.7265 42.3332 85.6474 42.2179 85.5476 42.1223C85.4478 42.0266 85.3292 41.9526 85.1995 41.905C84.9208 41.8037 84.626 41.7545 84.3295 41.76C84.0153 41.76 83.5683 41.76 83.0125 41.8567C82.3349 41.9373 81.6524 41.9696 80.9703 41.9533C80.4084 41.9275 79.8611 41.7658 79.3754 41.4821C78.819 41.1343 78.394 40.6115 78.167 39.9958C77.9451 39.5401 77.8358 39.0377 77.8484 38.5309C77.8611 38.0242 77.9951 37.5279 78.2395 37.0837C78.8651 36.1285 79.7574 35.3778 80.8056 34.9246C81.8537 34.4714 83.0116 34.3357 84.1361 34.5342C84.6336 34.6626 85.0954 34.9022 85.4868 35.235C85.8782 35.5678 86.189 35.9851 86.3957 36.4554L83.4716 37.6637C83.4004 37.5011 83.2941 37.356 83.1604 37.2391C83.0267 37.1221 82.869 37.0361 82.6983 36.9871C82.3439 36.8888 81.9658 36.9231 81.635 37.0837C81.3395 37.1896 81.0967 37.4063 80.9582 37.6879C80.8901 37.8249 80.8547 37.9759 80.8547 38.1289C80.8547 38.282 80.8901 38.433 80.9582 38.57C81.0306 38.7441 81.1507 38.8943 81.3045 39.0033C81.4584 39.1123 81.64 39.1757 81.8283 39.1862C82.4466 39.2567 83.0708 39.2567 83.6891 39.1862C84.3721 39.1275 85.058 39.1074 85.7433 39.1258C86.2992 39.1553 86.8408 39.3124 87.3262 39.585C87.8752 39.9139 88.3001 40.4152 88.5345 41.0108C88.807 41.6163 88.8994 42.2876 88.8004 42.9442C88.6915 43.6268 88.3895 44.2641 87.9303 44.7808C87.3934 45.3967 86.7186 45.877 85.9607 46.1825C85.2205 46.5097 84.4253 46.6942 83.6166 46.7262Z" fill="#FCE44B"/>
<path d="M103.457 34.4251C103.226 35.0905 102.806 35.6741 102.249 36.1047C101.575 36.6396 100.777 36.9969 99.9292 37.1439L98.1409 37.5064L99.0229 41.7718L96.135 42.3759L93.7183 30.5101L98.3946 29.5434C99.2164 29.3436 100.074 29.3436 100.896 29.5434C101.572 29.7023 102.184 30.065 102.648 30.5826C103.104 31.1186 103.412 31.7641 103.542 32.4555C103.682 33.1085 103.653 33.7866 103.457 34.4251ZM100.413 34.2438C100.527 34.0668 100.602 33.8675 100.633 33.6592C100.664 33.4509 100.651 33.2383 100.594 33.0355C100.563 32.8327 100.491 32.6383 100.383 32.4639C100.275 32.2894 100.133 32.1386 99.9655 32.0205C99.5596 31.8094 99.0882 31.7618 98.6483 31.8876L97.0775 32.2138L97.6938 35.1863L99.2645 34.8601C99.7133 34.8136 100.126 34.5922 100.413 34.2438Z" fill="#FCE44B"/>
<path d="M108.653 39.5003C107.671 39.0392 106.834 38.3159 106.237 37.4099C105.633 36.4671 105.283 35.384 105.222 34.2661C105.16 33.1481 105.389 32.0332 105.886 31.0299C106.375 30.0736 107.114 29.2677 108.025 28.6978C108.957 28.1227 110.018 27.7903 111.111 27.7312C112.205 27.6721 113.296 27.8881 114.284 28.3595C115.265 28.8227 116.101 29.5457 116.701 30.4499C117.292 31.3981 117.633 32.4806 117.692 33.5963C117.751 34.7121 117.527 35.8246 117.039 36.8299C116.555 37.7858 115.82 38.5919 114.913 39.162C113.992 39.7477 112.933 40.0811 111.843 40.1287C110.743 40.2016 109.644 39.985 108.653 39.5003ZM113.946 36.3466C114.474 35.585 114.734 34.669 114.684 33.7433C114.633 32.8176 114.276 31.9351 113.668 31.2354C113.017 30.6547 112.163 30.3544 111.292 30.3996C110.421 30.4449 109.603 30.8321 109.016 31.477C108.495 32.246 108.241 33.1642 108.291 34.0915C108.341 35.0188 108.693 35.9042 109.294 36.6124C109.611 36.9189 109.992 37.1514 110.41 37.2934C110.828 37.4355 111.272 37.4835 111.71 37.4341C112.14 37.4274 112.563 37.3265 112.949 37.1386C113.335 36.9507 113.675 36.6804 113.946 36.3466Z" fill="#FCE44B"/>
<path d="M125.159 40.4191L123.105 35.5857L122.404 35.5132L121.957 40.0686L119.021 39.7786L120.229 27.6953L125.159 28.1786C126.011 28.2347 126.838 28.487 127.576 28.9157C128.172 29.2761 128.648 29.8062 128.941 30.4382C129.219 31.0553 129.323 31.736 129.243 32.4078C129.181 33.181 128.871 33.9138 128.361 34.4982C127.797 35.1069 127.043 35.5072 126.223 35.6341L128.542 40.6849L125.159 40.4191ZM122.598 33.4711L124.422 33.6524C124.846 33.716 125.277 33.6167 125.63 33.3745C125.784 33.2393 125.908 33.0742 125.995 32.8893C126.083 32.7043 126.131 32.5035 126.138 32.2991C126.171 32.101 126.161 31.8982 126.109 31.7043C126.057 31.5105 125.964 31.3301 125.836 31.1753C125.68 31.0124 125.492 30.8832 125.284 30.7959C125.077 30.7086 124.853 30.665 124.627 30.6678L122.815 30.4866L122.598 33.4711Z" fill="#FCE44B"/>
<path d="M140.469 33.6523L139.756 35.9965L143.538 37.2048L142.873 39.3919L139.091 38.1836L138.318 40.7331L142.595 42.0381L141.895 44.2977L134.802 42.1348L138.342 30.5469L145.435 32.7098L144.746 34.9694L140.469 33.6523Z" fill="#FCE44B"/>
<path d="M146.921 43.9474L150.462 45.482L149.567 47.5724L143.308 44.8657L148.142 33.749L150.848 34.9574L146.921 43.9474Z" fill="#FCE44B"/>
<path d="M164.225 56.4408L159.041 52.5862L156.395 54.4229L152.854 51.7887L168.2 41.6387L172.103 44.5266L166.798 62.1441L163.173 59.4858L164.225 56.4408ZM165.3 53.1783L167.366 46.8104L161.88 50.6408L165.3 53.1783Z" fill="#FCE44B"/>
<path d="M178.628 64.0054C178.517 64.6745 178.185 65.2871 177.685 65.7454C177.363 66.0685 176.971 66.3137 176.54 66.4624C176.109 66.6111 175.649 66.6593 175.196 66.6033C174.152 66.412 173.209 65.8552 172.538 65.0325L168.695 60.9L177.589 52.6592L181.286 56.6588C182.037 57.3719 182.516 58.3249 182.64 59.3533C182.659 60.1105 182.398 60.8482 181.908 61.4255C181.417 62.0027 180.732 62.3792 179.981 62.4829C179.37 62.5237 178.761 62.3716 178.241 62.0479C178.6 62.6334 178.737 63.3277 178.628 64.0054ZM175.003 63.6429C175.185 63.6614 175.368 63.6383 175.54 63.5755C175.712 63.5127 175.867 63.4118 175.994 63.2804C176.14 63.1616 176.257 63.0102 176.335 62.8381C176.413 62.6661 176.449 62.4782 176.441 62.2896C176.402 61.8734 176.218 61.484 175.921 61.19L174.459 59.6192L172.502 61.4438L173.976 63.0388C174.222 63.3483 174.568 63.562 174.955 63.6429H175.003ZM176.042 58.1571L177.359 59.5708C177.606 59.8844 177.958 60.0988 178.35 60.175C178.525 60.1895 178.701 60.1656 178.866 60.1051C179.031 60.0446 179.18 59.9489 179.305 59.8246C179.441 59.711 179.551 59.5687 179.626 59.4079C179.701 59.2471 179.74 59.0717 179.74 58.8942C179.69 58.4985 179.507 58.1316 179.22 57.855L177.903 56.4292L176.042 58.1571Z" fill="#FCE44B"/>
<path d="M179.474 73.9502L181.794 69.2739L181.383 68.6939L177.637 71.3039L175.945 68.8873L185.902 61.9756L188.717 66.0356C189.226 66.7112 189.565 67.4983 189.708 68.3314C189.827 69.0155 189.734 69.7193 189.442 70.3493C189.146 70.9609 188.697 71.4854 188.138 71.8718C187.484 72.3395 186.691 72.5725 185.888 72.533C185.086 72.4935 184.32 72.1839 183.715 71.6543L181.371 76.6931L179.474 73.9502ZM183.099 67.5097L184.15 69.0081C184.258 69.1986 184.404 69.3653 184.579 69.4981C184.753 69.631 184.953 69.7273 185.165 69.7814C185.377 69.8182 185.595 69.8092 185.803 69.755C186.012 69.7009 186.206 69.6027 186.373 69.4673C186.542 69.365 186.688 69.2282 186.8 69.0658C186.913 68.9033 186.99 68.7189 187.026 68.5247C187.062 68.0907 186.932 67.6591 186.663 67.3164L185.612 65.8181L183.099 67.5097Z" fill="#FCE44B"/>
<path d="M187.219 83.4596L185.225 79.3996L182.978 79.7017L181.612 76.9346L194.421 75.5088L195.931 78.5659L187.002 87.8579L185.624 85.0546L187.219 83.4596ZM188.923 81.7679L192.246 78.4571L187.606 79.0975L188.923 81.7679Z" fill="#FCE44B"/>
<path d="M190.421 90.867L192.028 95.8332L189.732 96.5703L187.098 88.4382L189.225 87.7374L197.913 90.3716L196.318 85.4415L198.614 84.6924L201.26 92.8366L199.121 93.5253L190.421 90.867Z" fill="#FCE44B"/>
<path d="M191.231 100.279C191.597 99.266 192.227 98.3691 193.055 97.6812C193.923 96.9695 194.967 96.506 196.076 96.34C197.179 96.1388 198.316 96.2432 199.363 96.6421C200.366 97.0252 201.247 97.6723 201.913 98.515C202.595 99.367 203.041 100.384 203.205 101.463C203.392 102.544 203.301 103.654 202.94 104.69C202.58 105.696 201.953 106.586 201.127 107.263C200.246 107.954 199.205 108.411 198.101 108.593C196.996 108.774 195.863 108.675 194.808 108.302C193.809 107.922 192.929 107.285 192.258 106.454C191.575 105.597 191.13 104.576 190.965 103.493C190.777 102.417 190.869 101.31 191.231 100.279ZM194.953 105.185C195.768 105.625 196.706 105.782 197.62 105.632C198.535 105.481 199.373 105.03 200.003 104.351C200.266 104.013 200.453 103.622 200.551 103.205C200.649 102.788 200.656 102.355 200.571 101.935C200.518 101.503 200.373 101.087 200.146 100.716C199.919 100.345 199.615 100.027 199.254 99.7838C198.435 99.3436 197.493 99.1866 196.575 99.3374C195.657 99.4882 194.815 99.9383 194.179 100.618C193.922 100.958 193.739 101.35 193.643 101.766C193.547 102.183 193.541 102.615 193.623 103.034C193.672 103.469 193.816 103.887 194.046 104.259C194.276 104.631 194.585 104.948 194.953 105.185Z" fill="#FCE44B"/>
<path d="M116 158.871C139.677 158.871 158.872 139.677 158.872 116C158.872 92.3222 139.677 73.1279 116 73.1279C92.3226 73.1279 73.1283 92.3222 73.1283 116C73.1283 139.677 92.3226 158.871 116 158.871Z" stroke="#FCE44B" stroke-width="2.95645" stroke-miterlimit="10"/>
<path d="M104.243 117.8C107.887 117.8 110.84 111.898 110.84 104.617C110.84 97.3368 107.887 91.4346 104.243 91.4346C100.599 91.4346 97.6454 97.3368 97.6454 104.617C97.6454 111.898 100.599 117.8 104.243 117.8Z" fill="#FCE44B"/>
<path d="M127.757 117.8C131.401 117.8 134.355 111.898 134.355 104.617C134.355 97.3368 131.401 91.4346 127.757 91.4346C124.113 91.4346 121.16 97.3368 121.16 104.617C121.16 111.898 124.113 117.8 127.757 117.8Z" fill="#FCE44B"/>
<path d="M144.493 125.485C143.795 125.051 143.017 124.761 142.206 124.633C141.395 124.504 140.566 124.539 139.768 124.736C139.432 124.832 139.146 125.055 138.972 125.358C138.797 125.661 138.748 126.02 138.835 126.359C138.922 126.698 139.137 126.989 139.435 127.171C139.734 127.353 140.092 127.412 140.433 127.334C140.899 127.243 141.379 127.243 141.846 127.334C138.221 131.032 128.857 139.127 115.42 138.91C102.322 138.68 93.2472 130.609 89.9605 127.153C89.8369 127.03 89.694 126.928 89.5376 126.851C90.1868 126.608 90.8941 126.566 91.5675 126.73C91.9084 126.808 92.2662 126.749 92.5646 126.567C92.8631 126.385 93.0785 126.093 93.1651 125.755C93.2518 125.416 93.2028 125.057 93.0285 124.754C92.8543 124.451 92.5685 124.228 92.2322 124.132C91.3872 123.912 90.5041 123.88 89.6454 124.038C88.7867 124.197 87.9733 124.542 87.2624 125.049C86.5515 125.556 85.9604 126.212 85.5309 126.973C85.1014 127.733 84.844 128.578 84.7767 129.449C84.7464 129.801 84.8564 130.151 85.0826 130.422C85.3089 130.694 85.6332 130.865 85.985 130.899H86.1058C86.4376 130.897 86.7572 130.773 87.0027 130.55C87.2481 130.327 87.4023 130.02 87.4351 129.69C87.4799 129.311 87.5817 128.94 87.7372 128.591C87.7954 128.749 87.8859 128.893 88.003 129.014C91.5313 132.723 101.295 141.351 115.36 141.592H115.976C130.379 141.592 140.324 132.82 143.949 129.002C143.949 129.002 143.949 128.905 144.046 128.857C144.311 129.308 144.48 129.81 144.541 130.331C144.571 130.662 144.724 130.97 144.97 131.193C145.217 131.417 145.538 131.541 145.87 131.539H145.991C146.343 131.505 146.667 131.334 146.893 131.063C147.12 130.791 147.23 130.441 147.199 130.089C147.118 129.169 146.833 128.278 146.365 127.482C145.897 126.686 145.257 126.004 144.493 125.485Z" fill="#FCE44B"/>
<path d="M185.25 175.136L182.531 173.13L185.25 169.505L174.024 161.252L176.525 157.856L187.751 166.097L190.457 162.472L193.188 164.466L185.25 175.136Z" fill="#FCE44B"/>
<path d="M177.311 176.114L175.571 174.386L172.78 177.19L171.172 175.583L173.952 172.779L172.067 170.906L168.913 174.072L167.245 172.405L172.478 167.148L181.057 175.691L175.825 180.948L174.157 179.28L177.311 176.114Z" fill="#FCE44B"/>
<path d="M157.603 179.945L160.02 178.156L168.478 181.129L163.959 175.172L166.303 173.396L173.638 183.062L171.221 184.85L162.763 181.854L167.306 187.896L164.889 189.672L157.603 179.945Z" fill="#FCE44B"/>
<path d="M154.232 195.569L151.247 188.972C151.025 188.399 150.593 187.932 150.039 187.667C149.768 187.56 149.477 187.515 149.187 187.534C148.896 187.553 148.614 187.635 148.359 187.775C148.082 187.877 147.83 188.038 147.622 188.246C147.413 188.455 147.252 188.707 147.151 188.984C147.064 189.273 147.036 189.577 147.067 189.878C147.098 190.179 147.188 190.47 147.332 190.736L150.317 197.345L147.634 198.554L144.65 191.968C144.227 191.107 144.055 190.144 144.154 189.189C144.251 188.339 144.596 187.537 145.145 186.881C145.722 186.196 146.45 185.654 147.272 185.298C148.074 184.914 148.956 184.727 149.845 184.755C150.682 184.779 151.491 185.058 152.165 185.552C152.929 186.131 153.525 186.903 153.893 187.787L156.878 194.373L154.232 195.569Z" fill="#FCE44B"/>
<path d="M130.911 190.844L133.75 190.071L140.481 195.979L138.511 188.729L141.363 187.956L144.553 199.641L141.713 200.414L134.971 194.481L136.953 201.731L134.101 202.504L130.911 190.844Z" fill="#FCE44B"/>
<path d="M111.167 196.994C110.47 196.098 110.135 194.973 110.227 193.841C110.318 192.709 110.83 191.653 111.662 190.88C112.859 189.946 114.349 189.466 115.867 189.527L123.927 189.382L124.241 206.685L116.447 206.83C114.976 206.938 113.513 206.537 112.302 205.694C111.807 205.312 111.409 204.819 111.14 204.254C110.871 203.689 110.74 203.069 110.756 202.444C110.7 201.533 110.965 200.63 111.505 199.894C112.036 199.197 112.777 198.688 113.62 198.444C112.652 198.276 111.78 197.761 111.167 196.994ZM115.045 193.43C114.851 193.604 114.699 193.822 114.603 194.065C114.506 194.308 114.467 194.571 114.489 194.831C114.481 195.099 114.533 195.365 114.642 195.61C114.751 195.855 114.913 196.072 115.118 196.245C115.593 196.612 116.187 196.788 116.785 196.741L119.842 196.68V192.862H116.737C116.122 192.834 115.519 193.037 115.045 193.43ZM119.879 199.761H117.112C116.545 199.74 115.987 199.91 115.529 200.245C115.344 200.416 115.201 200.627 115.109 200.861C115.017 201.095 114.979 201.347 114.997 201.598C114.987 201.853 115.034 202.106 115.134 202.34C115.235 202.574 115.386 202.783 115.577 202.951C116.044 203.282 116.614 203.436 117.184 203.386H119.939L119.879 199.761Z" fill="#FCE44B"/>
<path d="M104.074 203.447L105.282 196.294C105.415 195.701 105.32 195.08 105.016 194.554C104.845 194.321 104.626 194.127 104.374 193.985C104.122 193.844 103.842 193.757 103.554 193.732C103.271 193.668 102.977 193.664 102.692 193.72C102.407 193.776 102.137 193.892 101.899 194.059C101.432 194.455 101.141 195.02 101.089 195.63L99.8808 202.783L96.9687 202.312L98.177 195.182C98.2913 194.224 98.677 193.319 99.2887 192.572C99.8383 191.922 100.564 191.443 101.379 191.195C102.242 190.939 103.152 190.89 104.038 191.05C104.908 191.17 105.737 191.497 106.454 192.005C107.139 192.487 107.661 193.165 107.953 193.95C108.274 194.857 108.349 195.832 108.17 196.777L106.962 203.919L104.074 203.447Z" fill="#FCE44B"/>
<path d="M91.7488 198.384L92.4616 196.04L88.6795 194.904L89.3321 192.717L93.1142 193.925L93.8875 191.376L89.61 190.083L90.2988 187.823L97.3917 189.974L93.8875 201.562L86.7946 199.423L87.4712 197.164L91.7488 198.384Z" fill="#FCE44B"/>
<path d="M79.1579 182.845L81.8405 184.053L83.1817 192.91L86.3113 186.131L88.9937 187.34L83.9067 198.336L81.2242 197.127L79.907 188.319L76.7533 195.134L74.0708 193.925L79.1579 182.845Z" fill="#FCE44B"/>
<path d="M55.7646 182.616C55.1822 181.24 55.0103 179.725 55.2693 178.254C55.5933 176.713 56.2888 175.274 57.2954 174.063C58.302 172.852 59.5892 171.906 61.045 171.306C62.4488 170.774 63.9765 170.661 65.4434 170.98C67.0544 171.354 68.5509 172.113 69.8054 173.191L74.7959 177.335L63.7396 190.627L58.7492 186.482C57.4468 185.463 56.4208 184.134 55.7646 182.616ZM63.9813 174.798C63.3101 174.883 62.6635 175.105 62.0815 175.45C61.4995 175.795 60.9946 176.256 60.5979 176.804C60.1124 177.283 59.7391 177.864 59.5051 178.505C59.2711 179.146 59.1821 179.831 59.2445 180.51C59.3069 181.19 59.5192 181.847 59.866 182.435C60.2129 183.022 60.6857 183.526 61.2505 183.909L62.7972 185.189L69.2134 177.456L67.6788 176.175C67.1845 175.712 66.6031 175.352 65.9683 175.115C65.3336 174.879 64.6582 174.771 63.9813 174.798Z" fill="#FCE44B"/>
<path d="M49.4692 173.952L58.4591 165.844L60.4408 168.043L51.4388 176.151L49.4692 173.952Z" fill="#FCE44B"/>
<path d="M51.0762 159.754L53.7104 163.379L55.8734 162.714L57.6738 165.227L45.2763 168.731L43.2825 165.952L50.5325 155.331L52.3571 157.869L51.0762 159.754ZM49.6746 161.699L46.9438 165.505L51.4146 164.128L49.6746 161.699Z" fill="#FCE44B"/>
<path d="M193.067 131.249C193.495 130.77 194.047 130.419 194.663 130.234C195.284 130.033 195.947 130.004 196.584 130.15C197.233 130.288 197.833 130.597 198.324 131.044C198.798 131.485 199.15 132.043 199.342 132.662C199.535 133.281 199.563 133.939 199.423 134.572C199.284 135.217 198.976 135.814 198.529 136.3C198.094 136.774 197.545 137.127 196.934 137.327C196.299 137.52 195.624 137.545 194.977 137.4C194.343 137.262 193.756 136.959 193.277 136.522C192.797 136.085 192.442 135.529 192.246 134.91C192.052 134.279 192.027 133.609 192.173 132.965C192.31 132.323 192.619 131.73 193.067 131.249Z" fill="#FCE44B"/>
<path d="M39.8268 132.965C39.9728 133.609 39.9477 134.279 39.7542 134.91C39.5584 135.529 39.2028 136.085 38.7233 136.522C38.2438 136.959 37.6574 137.262 37.0234 137.4C36.3756 137.545 35.701 137.52 35.0659 137.327C34.4549 137.127 33.9057 136.774 33.4709 136.3C33.0244 135.814 32.7158 135.217 32.5768 134.572C32.4369 133.939 32.4647 133.281 32.6576 132.662C32.8505 132.043 33.2016 131.485 33.6762 131.044C34.1668 130.597 34.7674 130.288 35.4163 130.15C36.0527 130.004 36.7164 130.033 37.3375 130.234C37.9527 130.419 38.5048 130.77 38.9326 131.249C39.3806 131.73 39.6897 132.323 39.8268 132.965Z" fill="#FCE44B"/>
</g>
<defs>
<clipPath id="clip0_387_791">
<rect width="232" height="232" fill="white"/>
</clipPath>
</defs>
</svg>
