<svg xmlns="http://www.w3.org/2000/svg" viewBox="0 0 324 180">
  <path
    d="M126.31,151.21a5.6,5.6,0,0,0-4.32-2h-8.38a4,4,0,0,1-3.38-6.14l2.56-4,.2.12,6.11-9.78,9.36-15L158.62,67a4,4,0,0,1,6.75,0L171,75.8a4,4,0,0,0,5.66,1.13l20.59-14.36a4,4,0,0,0,1.09-5.43l-33-51.83a4,4,0,0,0-6.75,0L51.42,173.85A4,4,0,0,0,54.8,180h86.84a4,4,0,0,0,3.08-6.55Z"
  />
  <path
    d="M238.68,120.57a4,4,0,0,0-5.67-1.14l-20.59,14.36a4,4,0,0,0-1.09,5.43l2.42,3.81a4,4,0,0,1-3.37,6.14H202a5.6,5.6,0,0,0-4.32,2l-18.41,22.24a4,4,0,0,0,3.08,6.55h86.84a4,4,0,0,0,3.38-6.15Z"
  />
  <path
    d="M324,82.9c-26.5-18.53-55.37-37.24-86.67-55.59q-25-14.62-49-27.31h-.19L211,43a227.61,227.61,0,0,1,37.45,23.53A229.83,229.83,0,0,0,162,125H162q-6.3-6.81-13.11-13.06l-17.75,28.4A198.22,198.22,0,0,1,162,180,198.28,198.28,0,0,1,324,82.9Z"
  />
  <path
    d="M95.23,75.1q-9.6-4.75-19.66-8.62A227.61,227.61,0,0,1,113,43L135.86,0h-.19q-24,12.69-49,27.31C55.37,45.66,26.5,64.37,0,82.9a198.09,198.09,0,0,1,78,19.75Z"
  />
  <style>
    path {
      fill: #000;
    }
    @media (prefers-color-scheme: dark) {
      path {
        fill: #fff;
      }
    }
  </style>
</svg>
