<svg xmlns="http://www.w3.org/2000/svg" viewBox="0 0 320 204">
  <path
    d="M282.41,198.27h0c-1.34-3.15-2-4.77-3.5-8.09s-2.21-5-3.78-8.51-2.38-5.27-4.06-8.92h0c-1.68-3.65-2.56-5.52-4.34-9.34h0c-1.79-3.82-2.71-5.77-4.62-9.76s-2.88-6-4.9-10.17h0c-2-4.16-3-6.27-5.19-10.59h0c-1.78-3.62-6.75-6.32-10.7-6.32a5.86,5.86,0,0,0-3.35.9h0c-3.4,2.31-5.08,3.51-8.36,6h0c-2.2,1.65-3.28,2.5-5.43,4.22-1.65,1.33-1.94,3.59-.81,5.88,1.48,2.95,2.2,4.41,3.62,7.29h0c2.13,4.32,3.16,6.43,5.17,10.59h0s0,0,0,0c2.22,4.59-2.16,8.27-7.78,6.78l-16.9-4.48a16.93,16.93,0,0,0-4.87-.58,11.26,11.26,0,0,0-8.4,3.69c-3.67,4.32-5.46,6.55-8.93,11.16h0l0,0c-2.9,3.84.19,10,5.44,11l38.36,6.84,44.73,8c5.25.93,10.1-2.05,8.61-5.54Z" />
  <path
    d="M228.94,119.16C254.33,101.25,284.39,88.1,320,81L236.23,33.31,184.81,4.05h0q4,7.37,8,14.75,3.86,7.17,7.7,14.34h0q3.72,7,7.42,13.92,6,3.15,12.09,6.29,10,5.24,20,10.45c-3.73,1.8-5.57,2.75-9.2,4.72h0c-3.63,2-5.41,3-8.92,5.14h0c-3.51,2.13-5.23,3.24-8.64,5.55s-5.07,3.5-8.36,6S200,89,196.84,91.6c-5.34,4.58-10.36,9.19-15.33,14-2.94,3-4.39,4.5-7.23,7.64h0c-2.14,2.37-3.46,3.87-5.16,5.89l-1.06,1.27-.74.9-.29-.55c-.18-.34-.36-.66-.53-1l-.36-.65a38.62,38.62,0,0,0-5.68-7.69h0c-2.8-3.21-4.23-4.76-7.14-7.8-2.73,5.22-4.07,7.78-6.68,12.83h0l-1.37,2.65c-1.78,3.43-3,5.81-5,9.75-2.51,4.88-3.74,7.28-6.13,12,2.91,3,4.34,4.59,7.13,7.79l1,1.11q6.63,7.68,12.48,15.72c2.58,3.53,3.83,5.34,6.29,9h0a79.85,79.85,0,0,1,6,10.21h0c2.38-3.8,3.61-5.66,6.11-9.3h0c2.5-3.65,3.78-5.42,6.39-8.9q6.33-8.09,13.24-15.6A225.78,225.78,0,0,1,228.94,119.16Z" />
  <path
    d="M149.62,177c-3.19-4.41-4.83-6.54-8.2-10.69a12.27,12.27,0,0,0-9.06-4.28h0a18.48,18.48,0,0,0-5.77.63l-3.09.82c-5.64,1.49-9.81-2.52-7.4-7.4h0q9.18-18.48,18.65-36.86,6.31-12.25,12.71-24.48Q154.22,81.82,161,69h0c.9-4,3.32-4.79,6-4,3.66,1.06,7.76,5,8.95,7.25a0,0,0,0,1,0,0h0c1.66,3.11,6.32,7.69,11.21,7.69a7.37,7.37,0,0,0,3.72-1h0c3.18-2.63,4.79-3.91,8.09-6.37,2.2-1.64,3.31-2.44,5.56-4,1.73-1.21,1.93-3.61.48-6.37-1.89-3.58-2.84-5.39-4.78-9Q192.77,39,185.19,24.92q-4-7.37-7.95-14.73h0c-1.51-2.95-6.09-7.56-10.2-8.52-2.64-.61-5.08.27-6.4,4.07h0q-4.06,7.46-8.1,14.93Q144.8,35,137.16,49.29,131.91,59.15,126.71,69q-13.18,25-25.94,50.14c-9.69,19.15-19.1,38.38-28.07,57.72-1.73,3.73-2.56,5.54-4.18,9.1h0c-1.61,3.56-2.4,5.29-3.9,8.68h0c-1.67,3.76,3,7.08,8.24,6.13L105.67,195l38.38-6.85c5.26-.93,8.43-7.24,5.57-11.17Z" />
  <path
    d="M89.28,119.41c0-.09.09-.17.12-.25q9-17.94,18.3-35.8a211.33,211.33,0,0,0-27.25-14.7l32.34-16.85,15.84-8.25Q140.27,21.75,152.09,0L96.48,31.65,0,86.57H0c33.09,5.8,62.1,16.31,88.87,32.59C89,119.24,89.15,119.32,89.28,119.41Z" />
  <style>
    path {
      fill: #000;
    }
    @media (prefers-color-scheme: dark) {
      path {
        fill: #fff;
      }
    }
  </style>
</svg>
